<svg id="Layer_1" data-name="Layer 1" xmlns="http://www.w3.org/2000/svg" viewBox="0 0 33.9 52.25"><defs><style>.cls-1{fill:#fff;}</style></defs><path class="cls-1" d="M-253.2,417l-1.08-.11-1.52-.15c-.51,0-1-.11-1.52-.15s-.78-.05-1.17-.05a19.14,19.14,0,0,0-5.41.94,35.65,35.65,0,0,0-6.33,2.7l-1.59.9-.29.16-.14-.07a81.12,81.12,0,0,0-7.13-4.24c-1.23-.67-2.46-1.32-3.7-2a1.06,1.06,0,0,0-.39-.13,1,1,0,0,0-.38,0l-1.07.39-.22.07c-.58-.56-1.14-1.14-1.72-1.71a36.8,36.8,0,0,1,9.37-4.51l.14.06c1.19.67,2.42,1.27,3.64,1.88.86.43,1.73.84,2.59,1.26a21.26,21.26,0,0,1,3.64,2.18l.08,0,2.54-.51c0-.09,0-.18,0-.27,0-1.45.06-2.89.07-4.34,0-2.22,0-4.44,0-6.66,0-1.15,0-2.3,0-3.45a1.79,1.79,0,0,0,0-.23.5.5,0,0,0-.32.08,17.28,17.28,0,0,0-2.66,1.31,19.92,19.92,0,0,0-4.07,3.18l-.36.35-.14-.17-.72-1a18.72,18.72,0,0,0-4.79-4.39,31.06,31.06,0,0,0-4.9-2.52l-1.36-.55-.32-.13c.06-.07.09-.12.14-.17.3-.3.59-.6.89-.89a1.82,1.82,0,0,0,.39-.53,7.28,7.28,0,0,0,.6-2.34c0-.34,0-.68,0-1,0-2,0-4,0-5.94,0-1,0-1.92-.05-2.87,0-.32,0-.64,0-1a5.21,5.21,0,0,0-.25-1.57,4,4,0,0,0-.71-1.3l-.81-1c0-.06-.09-.13-.16-.21l.12,0c.87-.26,1.73-.55,2.62-.74a15.91,15.91,0,0,1,1.68-.28c.31,0,.61-.11.91-.17a26.15,26.15,0,0,0,2.64-.67,4.47,4.47,0,0,0,.64-.25l1.54-.81a10.06,10.06,0,0,0,1.86-1.31c1.18-1,2.37-2.05,3.61-3l.24-.19.15.16.35.45a5.59,5.59,0,0,0,1.51,1.4,12.13,12.13,0,0,0,1.74.94l3.24,1.4,4.46,1.92c.36.15.72.28,1.09.42a2.11,2.11,0,0,0,.71.11h2.3c0,.1,0,.13-.08.17-.47.45-.93.91-1.42,1.33a2.47,2.47,0,0,0-.82,1.49,10.77,10.77,0,0,0-.19,1.79l-.15,2.78c0,.48-.05,1-.05,1.44q0,12.32,0,24.62c0,.94.05,1.88.1,2.82a5.94,5.94,0,0,0,.23,1.38,4.36,4.36,0,0,0,.79,1.6l1.16,1.49C-253.35,416.82-253.29,416.9-253.2,417Zm-9.59-37.59v17.08c0,.32,0,.64,0,1,0,1.75.05,3.5.05,5.25,0,2.85,0,5.69-.05,8.54,0,1.23-.06,2.46-.1,3.69a1.91,1.91,0,0,0,0,.2l.71-.16a20.21,20.21,0,0,1,3-.4,12.06,12.06,0,0,1,1.7,0,.44.44,0,0,0,.3,0c0-.1-.06-.18-.08-.27a8.6,8.6,0,0,1-.32-1.74c-.09-1-.12-2-.12-3.05q0-12.4,0-24.8c0-.25,0-.51,0-.77,0-.82.1-1.64.14-2.46s0-1.44.12-2.15a7.57,7.57,0,0,1,.33-1.64c0-.07,0-.13.06-.21l-.17-.08-.92-.38-4.92-2.12c-1.09-.46-2.18-.9-3.23-1.43a11.16,11.16,0,0,1-2.45-1.61l-.1-.06-.17.13-1.73,1.48a14.46,14.46,0,0,1-1.75,1.37l-.11.09.27.21a35.47,35.47,0,0,0,3.47,2.18,24.48,24.48,0,0,0,3.65,1.66,7.5,7.5,0,0,0,1.8.43Zm-2,1.71A30.27,30.27,0,0,1-273,377l-.39.24-.17.12V392a2.09,2.09,0,0,0,.29.16l.56.23a5,5,0,0,1,.49.2l.54.27c.44.24.9.45,1.31.73a25.17,25.17,0,0,1,2.89,2.28l.19.17c.39-.07,2.31-.64,2.52-.74Zm-16.3-3.5,0,.12a7.14,7.14,0,0,1,.57,2.92c0,.73,0,1.46,0,2.19,0,1.87.05,3.73.06,5.6,0,1,0,2,0,3,0,.17,0,.34,0,.51a4.7,4.7,0,0,1-.21.9,8.25,8.25,0,0,1-.46,1.46s0,.05,0,.09l.27.13c.76.38,1.53.73,2.28,1.13a21.6,21.6,0,0,1,6.5,5.17.81.81,0,0,0,.14.12,22.76,22.76,0,0,1,4-2.74c-.06-.06-.09-.11-.14-.15a19.21,19.21,0,0,0-2.07-1.86,12.25,12.25,0,0,0-2.35-1.55l-.21-.11a5.31,5.31,0,0,0-.88-.38,4.11,4.11,0,0,1-.57-.25c-.45-.24-.89-.5-1.33-.75,0,0,0,0-.06-.05s0,0,0,0V393q0-8.1,0-16.19v-.3s0,0,0,0,0,0,0,0l-.13,0a28.3,28.3,0,0,1-2.85.72,11.24,11.24,0,0,1-1.29.23c-.35,0-.69.11-1,.16Zm13.24,39.17-.09-.09c-.32-.27-.64-.55-1-.8a16.55,16.55,0,0,0-2.35-1.43c-.64-.33-1.3-.62-1.94-.94l-4.31-2.17-.18-.08a27.42,27.42,0,0,0-4.44,1.91c3.42,1.81,6.83,3.61,10.08,5.71l.83-.45.82-.44.86-.42.84-.4A8.13,8.13,0,0,0-267.85,416.83Z" transform="translate(286.86 -369.03)"/></svg>