<svg id="Layer_1" data-name="Layer 1" xmlns="http://www.w3.org/2000/svg" viewBox="0 0 224.14 131.74"><defs><style>.cls-1{fill:#fff;}</style></defs><g id="Layer_2" data-name="Layer 2"><g id="Layer_1-2" data-name="Layer 1-2"><path class="cls-1" d="M0,16.55C4,12,7.63,7,12,2.92,16.87-1.59,24-.59,29.39,4.76c9.89,9.8,19.71,19.68,29.55,29.53l53.14,53.28c11.62-11.74,23-23.29,34.42-34.76Q170,29.2,193.62,5.68C201.14-1.84,207.5-1.88,215,5.5c12.23,12.05,12.18,16.11-.12,28.4q-45.75,45.69-91.45,91.42c-8.62,8.62-14.43,8.57-23.19-.19Q53.47,78.38,6.75,31.54c-2.63-2.64-4.52-6-6.75-9Z" transform="translate(0 0)"/></g></g></svg>