<svg xmlns="http://www.w3.org/2000/svg" viewBox="0 0 47.9 47.9"><defs><style>.cls-1{fill:#fff;stroke:#000;stroke-miterlimit:10;stroke-width:2px;}</style></defs><g id="Layer_2" data-name="Layer 2"><g id="Layer_1-2" data-name="Layer 1"><g id="Layer_2-2" data-name="Layer 2"><g id="Layer_1-2-2" data-name="Layer 1-2"><path class="cls-1" d="M22.2,25.68v-4A7.75,7.75,0,0,0,21.94,20a2.33,2.33,0,0,0-1.61-1.87,6.28,6.28,0,0,0-1.6-.3H7.89a.85.85,0,0,1-.8-.42,3.2,3.2,0,0,0-2.43-1.53,3.15,3.15,0,0,0-2.8,1.3,4.06,4.06,0,0,0,.35,5.29,3.26,3.26,0,0,0,.87.61,3.06,3.06,0,0,0,3.83-1c.17-.21.33-.43.51-.68H18.51v.73c0,1.35,0,2.71.1,4.06a2.85,2.85,0,0,0,2.53,3.1h.14a10.94,10.94,0,0,0,1.62.12h6.3v4H1.6a2,2,0,0,0-.56.06v3.28H28.71a9.72,9.72,0,0,0,2-.27,2.26,2.26,0,0,0,1.65-1.68,5.3,5.3,0,0,0,.23-1.12c0-1.17.1-2.36.08-3.53A15.09,15.09,0,0,0,32.45,28a2.46,2.46,0,0,0-1.64-2,6,6,0,0,0-2-.35h-6.6Zm18.25-3a3.28,3.28,0,0,0,4.74,1.41,4.1,4.1,0,0,0,.68-.58,4.14,4.14,0,0,0-.08-5.34,3.05,3.05,0,0,0-2.44-1.05,3.31,3.31,0,0,0-2.86,1.93c-.76.12-11.72.08-12.09,0V15.54a14.15,14.15,0,0,0-.2-2,2.5,2.5,0,0,0-1.61-2.07,6.33,6.33,0,0,0-2.14-.43H1.07v3.7H24.69v3.59a12.78,12.78,0,0,0,.21,1.95,2.4,2.4,0,0,0,1.58,2,6.21,6.21,0,0,0,2.18.33H40.45ZM30.66,41.22l-.38-.53A3,3,0,0,0,27,39.36a3.62,3.62,0,0,0-2.59,4.24v0a3.38,3.38,0,0,0,2.3,2.92,3,3,0,0,0,3.45-1c.21-.24.4-.5.56-.72H46.3a4.86,4.86,0,0,0,.55-.07V41.22ZM30.81,3A3.28,3.28,0,0,0,26.1,1.55a3.27,3.27,0,0,0-.51.41,4.12,4.12,0,0,0-.27,5.4l.07.09a3.25,3.25,0,0,0,4.94-.14,4.82,4.82,0,0,0,.48-.7h16V3ZM1,41.31v3.63h15.3a3.21,3.21,0,0,0,4.6,1.49,4,4,0,0,0,1.33-5.15,3.7,3.7,0,0,0-.61-.89,3.14,3.14,0,0,0-2.5-1,3.34,3.34,0,0,0-2.82,2ZM16.12,3H1V6.61H16c1.29,1.66,1.8,1.73,2.59,1.86a3,3,0,0,0,2.87-1.11,4.06,4.06,0,0,0-.12-5.29l0,0A3.1,3.1,0,0,0,18.7,1,3.44,3.44,0,0,0,16.12,3ZM1,30.05H11A3.52,3.52,0,0,0,13.56,32a3,3,0,0,0,2.87-1.12,4.08,4.08,0,0,0-.11-5.31l-.05-.06a3.17,3.17,0,0,0-2.51-1,3.44,3.44,0,0,0-2.82,2H1Zm36.28-19a3.23,3.23,0,0,0-4.65-1.46,3.64,3.64,0,0,0-.54.43,4.06,4.06,0,0,0-.35,5.29,1.63,1.63,0,0,0,.17.2,3.13,3.13,0,0,0,2.51,1.12,3.43,3.43,0,0,0,2.88-2H46.8a16.21,16.21,0,0,0,0-3.55ZM40.6,29.75A3.21,3.21,0,0,0,36,28.26a4,4,0,0,0-1.34,5.13,3.73,3.73,0,0,0,.62.89,3,3,0,0,0,2.44,1,3.32,3.32,0,0,0,2.87-1.9h6.25V29.77Z"/><path class="cls-1" d="M22.2,25.68h6.6a6,6,0,0,1,2,.34,2.48,2.48,0,0,1,1.64,2,15.07,15.07,0,0,1,.22,2.13c0,1.17,0,2.35-.08,3.52a5.3,5.3,0,0,1-.23,1.12,2.28,2.28,0,0,1-1.62,1.71,9.72,9.72,0,0,1-2,.27H1C1,35.68,1,34.56,1,33.51c.22,0,.39,0,.56,0H29.2v-4H22.9a12.48,12.48,0,0,1-1.62-.11,2.83,2.83,0,0,1-2.68-3,.61.61,0,0,1,0-.14c-.09-1.36-.07-2.72-.1-4.07v-.72H7.42c-.18.24-.34.47-.51.68a3.07,3.07,0,0,1-3.83,1,3.91,3.91,0,0,1-1.76-4.92,3.41,3.41,0,0,1,.54-1,3.16,3.16,0,0,1,2.8-1.31,3.23,3.23,0,0,1,2.43,1.53.87.87,0,0,0,.8.43H18.73a5.87,5.87,0,0,1,1.6.3A2.32,2.32,0,0,1,21.94,20a7.43,7.43,0,0,1,.21,1.63V25C22.17,25.22,22.19,25.41,22.2,25.68Z"/><path class="cls-1" d="M40.45,22.69H28.71a6.21,6.21,0,0,1-2.18-.33,2.41,2.41,0,0,1-1.58-2,12.91,12.91,0,0,1-.21-2V14.85H1V11.14H24.45a6.44,6.44,0,0,1,2.12.37,2.5,2.5,0,0,1,1.61,2.07,14.15,14.15,0,0,1,.2,2v3.52c.37.12,11.33.16,12.09,0a3.31,3.31,0,0,1,2.86-1.93,3.05,3.05,0,0,1,2.44,1.05,4.14,4.14,0,0,1,.08,5.34,3.21,3.21,0,0,1-4.91-.11A3.52,3.52,0,0,1,40.45,22.69Z"/><path class="cls-1" d="M30.66,41.22H46.85v3.56c-.18,0-.36.06-.55.07H30.68c-.16.22-.35.48-.56.72a3,3,0,0,1-3.45,1,3.4,3.4,0,0,1-2.3-2.93,3.64,3.64,0,0,1,2.53-4.28H27a3.06,3.06,0,0,1,3.33,1.33Z"/><path class="cls-1" d="M30.81,3h16V6.61h-16A3.31,3.31,0,0,1,26,8a3.36,3.36,0,0,1-.61-.52A4.16,4.16,0,0,1,25.51,2l.08-.08a3.21,3.21,0,0,1,4.86.48A5.5,5.5,0,0,1,30.81,3Z"/><path class="cls-1" d="M1,41.31H16.34a3.34,3.34,0,0,1,2.82-2,3.14,3.14,0,0,1,2.5,1,4.11,4.11,0,0,1,.08,5.35,3.14,3.14,0,0,1-4.79.1,3.75,3.75,0,0,1-.61-.9H1Z"/><path class="cls-1" d="M16.12,3A3.44,3.44,0,0,1,18.7,1a3.1,3.1,0,0,1,2.69,1,4.06,4.06,0,0,1,.18,5.29l0,0a3,3,0,0,1-2.87,1.11c-.79-.13-1.3-.2-2.59-1.86H1V3Z"/><path class="cls-1" d="M1,30.05V26.48a16.68,16.68,0,0,1,2,0h8a3.46,3.46,0,0,1,2.73-2,3.12,3.12,0,0,1,2.46,1,4.08,4.08,0,0,1,.2,5.32l0,.05a3.06,3.06,0,0,1-2.87,1.12A3.54,3.54,0,0,1,11,30.05Z"/><path class="cls-1" d="M37.31,11.08h9.45a16.21,16.21,0,0,1,0,3.55H37.33a3.47,3.47,0,0,1-2.88,2,3.13,3.13,0,0,1-2.51-1.12,4.05,4.05,0,0,1,0-5.3l.17-.18a3.17,3.17,0,0,1,4.81.41A4.17,4.17,0,0,1,37.31,11.08Z"/><path class="cls-1" d="M40.6,29.77h6.25V33.4H40.6a3.34,3.34,0,0,1-2.87,2,3,3,0,0,1-2.44-1A4.1,4.1,0,0,1,35.2,29,3.14,3.14,0,0,1,40,28.91a3.79,3.79,0,0,1,.62.9Z"/></g></g></g></g></svg>