<svg xmlns="http://www.w3.org/2000/svg" viewBox="0 0 863.62 648.64"><defs><style>.cls-1{fill:#fff;}</style></defs><g id="Layer_2" data-name="Layer 2"><g id="Layer_1-2" data-name="Layer 1"><path class="cls-1" d="M431.84,396.71.44,89.5c-1.59-16.47,1.07-32,9-46.09C25,15.63,48.85.52,80.93.22c41.94-.4,83.89-.13,125.83-.14H414q181.5,0,363,0c10.54,0,21,.45,31,4.12,30.54,11.23,48.91,32.82,54.69,65a64.87,64.87,0,0,1,.83,8.93c.14,3.64,0,7.3,0,11.22ZM99.13,36.78q166,117.21,332.39,232.9c10.54-6,330.7-230.06,333-232.9Z"/><path class="cls-1" d="M1.3,127.12l107,76.24V611.23c3.73,1,639.45,1.39,646.72.39v-408l108.21-77.1c.14,2.78.3,4.51.3,6.23q0,50.49,0,101,0,70,0,140c0,65,.1,130-.06,195-.1,39.48-30.13,73.59-69.21,78.9a128,128,0,0,1-17.4,1q-130.6.08-261.2,0-154.07,0-308.12,0c-42.45,0-84.9.12-127.35-.09A80.76,80.76,0,0,1,1,579.59a91.26,91.26,0,0,1-.88-13.43q-.08-97.74,0-195.49,0-116,0-232V127.77Z"/></g></g></svg>