<svg xmlns="http://www.w3.org/2000/svg" viewBox="0 0 135.12 135.11"><defs><style>.cls-1{fill:#fff;}</style></defs><g id="Layer_2" data-name="Layer 2"><g id="Layer_1-2" data-name="Layer 1"><path class="cls-1" d="M0,102V33c.39-1.79.69-3.62,1.19-5.38C4.72,15.19,12.55,6.69,24.56,2.15A76.39,76.39,0,0,1,33,0H102c.55.13,1.1.28,1.67.37A34.48,34.48,0,0,1,117.08,5.3c11.49,7.35,17.81,17.82,17.94,31.53.19,20.47.07,40.94,0,61.41a35.67,35.67,0,0,1-.71,7.06,37.52,37.52,0,0,1-37,29.81c-19.9-.17-39.8-.05-59.7,0a35.49,35.49,0,0,1-10.15-1.3c-12.22-3.54-20.66-11.26-25.22-23.11A73.51,73.51,0,0,1,0,102Zm122.8-34.4h0c0-9.89,0-19.77,0-29.66a29.73,29.73,0,0,0-.45-5.5A24.88,24.88,0,0,0,97.94,12.2c-20.3-.07-40.6,0-60.89,0a24,24,0,0,0-4.71.46A24.89,24.89,0,0,0,12.2,37c-.07,20.3,0,40.6,0,60.9a23.93,23.93,0,0,0,.46,4.7A24.9,24.9,0,0,0,37,122.79c20.3.06,40.6,0,60.9,0a23.93,23.93,0,0,0,4.7-.46,24.93,24.93,0,0,0,20.15-24.38C122.86,87.84,122.8,77.73,122.8,67.63Z"/><path class="cls-1" d="M102.37,67.54a34.88,34.88,0,1,1-34.8-34.93A34.8,34.8,0,0,1,102.37,67.54Zm-57.49-.11a22.62,22.62,0,1,0,22.7-22.55A22.63,22.63,0,0,0,44.88,67.43Z"/><path class="cls-1" d="M103.75,40.24a8.92,8.92,0,1,1,8.89-8.89A8.91,8.91,0,0,1,103.75,40.24Z"/></g></g></svg>