<?xml version="1.0" encoding="utf-8"?>
<svg xmlns="http://www.w3.org/2000/svg" height="800" width="1200" viewBox="-11.493675 -16.3118 99.61185 97.8708">
  <path d="M 88.312 74.193 C 88.312 74.193 88.25 70.568 88.197 69.632 C 88.197 68.418 88.312 74.193 88.312 74.193 Z M 62.752 63.381 L 49.807 63.381 L 49.807 43.108 C 49.807 38.277 49.721 32.052 43.076 32.052 C 36.332 32.052 35.301 37.318 35.301 42.758 L 35.301 63.378 L 22.357 63.378 L 22.357 21.692 L 34.782 21.692 L 34.782 27.388 L 34.957 27.388 C 37.491 23.058 42.202 20.468 47.217 20.657 C 60.337 20.657 62.757 29.287 62.757 40.512 L 62.752 63.381 Z M 7.75 15.994 C 1.967 15.997 -1.649 9.737 1.242 4.728 C 4.132 -0.282 11.361 -0.282 14.253 4.727 C 14.912 5.868 15.258 7.162 15.258 8.481 C 15.262 12.628 11.897 15.994 7.75 15.994 M 14.222 63.381 L 1.263 63.381 L 1.263 21.692 L 14.222 21.692 L 14.222 63.381 Z M 69.206 -11.052 L -5.243 -11.052 C -8.759 -11.092 -11.643 -8.272 -11.688 -4.753 L -11.688 70.001 C -11.647 73.522 -8.763 76.342 -5.243 76.304 L 69.206 76.304 C 72.732 76.348 75.627 73.528 75.677 70.001 L 75.677 -4.759 C 75.627 -8.283 72.731 -11.102 69.206 -11.057" style="fill: rgb(255, 255, 255);"/>
</svg>