<svg xmlns="http://www.w3.org/2000/svg" viewBox="0 0 600 600"><defs><style>.cls-1{fill:none;}.cls-2{fill:#fff;}</style></defs><g id="Layer_2" data-name="Layer 2"><g id="Layer_1-2" data-name="Layer 1"><rect class="cls-1" width="600" height="600"/><g id="Layer_2-2" data-name="Layer 2"><g id="Layer_1-2-2" data-name="Layer 1-2"><g id="Layer_2-2-2" data-name="Layer 2-2"><g id="Layer_1-2-2-2" data-name="Layer 1-2-2"><path class="cls-2" d="M347.09,326.5c5.78,1.86,10.89.71,16-.07,13.64-2,22.68-11.11,31.72-20.59,17.41-18.18,35.16-36.08,52.75-54.12,8.46-8.69,16.75-17.55,25.33-26.11a175.05,175.05,0,0,1,13.5-11.88c3.79-3,9-2.17,12.37,1.73a9,9,0,0,1-.32,12q-17.58,18-35.35,35.9c-17.81,18-35.55,36-53.49,53.88-7.08,7.07-14.16,14.27-22.1,20.26-7.54,5.7-16.24,9.83-24.37,14.74q-44,26.6-87.91,53.21c-16.47,9.95-33,19.74-49.54,29.63-4.6,2.76-9.15,5.62-13.73,8.4-8,4.85-16.87,1.92-20.37-6.74-6.7-16.58-18.12-28.36-34.63-35.08-9-3.67-12-11.91-7.07-20.32,9.91-17,20-33.95,30.07-50.91q17.91-30.29,35.83-60.57c11.2-18.89,23.1-37.36,33.51-56.72,8.28-15.36,20.92-26.48,32.71-38.5,25.39-26,51.08-51.69,76.65-77.5,1.23-1.24,2.54-2.41,3.74-3.64,4.74-4.88,10.38-5.35,14.48-1.18,3.8,3.88,3.19,9.64-1.5,14.4l-33.27,33.7c-19.3,19.5-38.71,38.89-57.86,58.55a135.64,135.64,0,0,0-15.06,18.17c-4.69,6.91-5,15.14-4.18,23.33a21.2,21.2,0,0,0,1.3,3.79c3.28-3.16,6.16-5.85,9-8.64q30.76-30.88,61.51-61.83,26.46-26.68,52.83-53.5c4.22-4.29,10.24-4.75,14-1s3.66,9.59-.53,13.83q-37.61,38-75.22,75.83c-17.8,18-35.64,36-53.16,54.25-15.65,16.31-12.66,43.85,5.44,57.27,15.37,11.4,37.24,9,51.22-5.17,27.5-27.81,54.83-55.78,82.33-83.58,14.45-14.6,29.11-29,43.67-43.46,4.34-4.31,9.68-4.68,13.63-.93s3.73,9.58-.43,13.81Q435.39,237.11,400,273c-16.94,17.1-34,34-51.05,51.07A27.72,27.72,0,0,0,347.09,326.5ZM248,252,170.46,383c19.74,7.2,32.86,20.09,39.43,39.95l130-78.43-9.81-4.24.07,1c-7.84,1.79-15.61,4-23.54,5.24-8.27,1.22-16.39-.57-24.2-3.54a51.62,51.62,0,0,1-20.19-13.33c-18.45-20.26-20.59-43.13-9.83-67.89Z"/><path class="cls-2" d="M110.15,496.55H495.31a28.49,28.49,0,0,1,5.22.24c2.57.5,4.4,2.1,4.28,4.92s-2.34,3.91-4.89,4.17c-1,.1-2,0-3,0H88.39c2.45-5.4,4.54-10.17,6.76-14.87,7.52-15.9,15.11-31.77,22.63-47.67,4.72-10,12.22-16.15,23.37-16.93,17.56-1.21,29.91,15.65,24.27,33-2.49,7.63-7.76,12.74-14.8,16.15q-18.72,9.09-37.45,18c-1.1.53-2.14,1.19-3.2,1.77Z"/></g></g></g></g></g></g></svg>