<svg xmlns="http://www.w3.org/2000/svg" viewBox="0 0 126.3 208.38"><defs><style>.cls-1{fill:#fff;}</style></defs><g id="Layer_2" data-name="Layer 2"><g id="Layer_1-2" data-name="Layer 1"><path class="cls-1" d="M0,104.22q0-41.7,0-83.39A20.69,20.69,0,0,1,4.16,8a19.62,19.62,0,0,1,6.42-5.49A21.78,21.78,0,0,1,21.09,0q42.24,0,84.47,0a19.93,19.93,0,0,1,17.33,9,17.78,17.78,0,0,1,3.2,8.8c.12,1.6.2,3.19.2,4.79q0,82.44,0,164.88a20.87,20.87,0,0,1-1.86,9.07,20,20,0,0,1-8.58,9.24,20.8,20.8,0,0,1-10.35,2.56H21a21.84,21.84,0,0,1-8.21-1.45,19.83,19.83,0,0,1-11-10.35A20.87,20.87,0,0,1,0,187.5Zm7.76-.09q0,24.3,0,48.6c0,5.71,0,11.43,0,17.15,0,1.24,0,1.24,1.27,1.25H116.79c.28,0,.56,0,.84,0,.66.06,1-.21.91-.89,0-.32,0-.64,0-1V39.1c0-2,.27-1.85-1.87-1.85H9.51c-2,0-1.74-.13-1.74,1.73ZM63.16,22.29h0c5.31,0,10.63,0,15.94,0,.36,0,.72,0,1.08,0a3.61,3.61,0,0,0,3.35-3.05,3.42,3.42,0,0,0-2.66-4.08A6.51,6.51,0,0,0,79.22,15H47.09c-.32,0-.64,0-1,0a3.63,3.63,0,0,0-3.28,2.56c-.32,1.83-.12,2.93,1.5,4.09a4.15,4.15,0,0,0,2.5.66Zm.42,162.76v-.11c-1.68,0-3.36,0-5,0a5,5,0,0,0-4.77,2.8,4.78,4.78,0,0,0,4.31,6.83c3.39.14,6.79.12,10.18,0a4.74,4.74,0,0,0,4.67-5.05c-.09-2.62-2.15-4.44-5-4.46C66.45,185,65,185.05,63.58,185.05Z"/><path class="cls-1" d="M69.36,105.58l3.35,3c.55.49.7.45,1.28-.14,1.09-1.1,2.18-2.22,3.3-3.29a3.58,3.58,0,0,1,5.76,4,1.23,1.23,0,0,0,.26,1.65,7.37,7.37,0,0,1,1.94,4.3,1.51,1.51,0,0,0,1.44,1.46A8.81,8.81,0,0,1,92,119.41c3.6,3.69,7.28,7.3,10.92,11a9.75,9.75,0,0,1,1.4,11.33A9.58,9.58,0,0,1,89.46,144c-2.75-2.6-5.36-5.37-8-8.06-1.07-1.07-2.15-2.15-3.26-3.18A7.87,7.87,0,0,1,75.59,128c-.15-1-.55-1.64-1.7-1.76a7.29,7.29,0,0,1-4.26-2,1,1,0,0,0-1.34-.2,3.56,3.56,0,0,1-5.09-2.56,3.32,3.32,0,0,1,.89-3.09c1.13-1.19,2.32-2.31,3.48-3.46.16-.17.3-.36.45-.53l-3.51-3.73c-1.3,1.29-2.5,2.46-3.68,3.64-3.65,3.65-7.28,7.31-10.95,10.94a2.13,2.13,0,0,0-.69,2,67.51,67.51,0,0,1,.51,7.52,15.68,15.68,0,0,1-1.44,7,11.63,11.63,0,0,1-4.43,4.61,16.48,16.48,0,0,1-10.17,2.57c-.24,0-.48,0-.71-.06a1.6,1.6,0,0,1-1.44-1.1A1.67,1.67,0,0,1,32,146c1.34-1.37,2.7-2.72,4.06-4.08.9-.91,1.78-1.84,2.71-2.72a1.51,1.51,0,0,0,.53-1.49c-.47-2.55-1-5.1-1.4-7.65a.65.65,0,0,0-.6-.61L29.66,128a1.55,1.55,0,0,0-1.5.52c-1.94,2-3.9,3.9-5.86,5.85-.34.34-.67.68-1,1a1.59,1.59,0,0,1-1.76.4,1.57,1.57,0,0,1-1-1.51,25.76,25.76,0,0,1,0-3.83,16.41,16.41,0,0,1,4.06-9.05,9.79,9.79,0,0,1,5-3.08,22.38,22.38,0,0,1,8.43-.57c1.55.2,3.1.3,4.65.48.58.08.88-.28,1.21-.61,2.15-2.15,4.29-4.31,6.45-6.45,2.55-2.54,5.12-5.06,7.67-7.59a6.8,6.8,0,0,0,.55-.71c-1.38-1.42-2.7-2.81-4-4.16q-8.22-8.23-16.47-16.43a6.3,6.3,0,0,0-1.77-1.16C32.65,80.38,31,79.78,29.34,79a12,12,0,0,1-2.75-1.89c-1.5-1.37-2.87-2.89-4.35-4.3a3.82,3.82,0,0,1,.09-6c1.29-1.13,2.44-2.42,3.66-3.63,1.75-1.73,3.72-1.81,5.51-.11s3.29,3.16,4.83,4.84a11.26,11.26,0,0,1,1.73,2.71c.78,1.66,1.41,3.39,2.16,5.07A4.21,4.21,0,0,0,41.1,77q6.6,6.63,13.22,13.24c2.29,2.29,4.57,4.59,6.86,6.87.64.64.75.63,1.35,0Q67.6,92,72.66,86.88c1.33-1.33,2.65-2.67,4-4a1.59,1.59,0,0,0,.48-1.49c-.25-2.46-.5-4.93-.54-7.39a23.15,23.15,0,0,1,.55-4.75,10.88,10.88,0,0,1,5.21-7.15A16.83,16.83,0,0,1,93,59.5a1.68,1.68,0,0,1,1.14,3.06c-2,2-4,4.1-6.12,6.09a2.63,2.63,0,0,0-.87,2.85c.52,2.17.85,4.38,1.21,6.59.1.56.27.8.86.9,2.52.42,5,.89,7.54,1.36a1.44,1.44,0,0,0,1.38-.51c2.19-2.21,4.43-4.39,6.62-6.61a1.78,1.78,0,0,1,2-.66c.87.32,1,1.1,1.07,1.85a17.22,17.22,0,0,1-.55,6.06,15.86,15.86,0,0,1-4.4,7.31,11.58,11.58,0,0,1-6.64,2.78,38.68,38.68,0,0,1-10.14-.34,1.85,1.85,0,0,0-1.79.59q-6.42,6.47-12.89,12.89C70.86,104.28,70.24,104.78,69.36,105.58Z"/></g></g></svg>