<svg xmlns="http://www.w3.org/2000/svg" viewBox="0 0 250 250"><defs><style>.cls-1{fill:none;}.cls-2{fill:#fff;}</style></defs><g id="Layer_2" data-name="Layer 2"><g id="Layer_1-2" data-name="Layer 1"><rect class="cls-1" width="250" height="250"/><path class="cls-2" d="M61.77,123.31q0-41.7,0-83.4A20.66,20.66,0,0,1,65.92,27a19.44,19.44,0,0,1,6.43-5.49,21.75,21.75,0,0,1,10.5-2.47q42.24,0,84.47,0a19.94,19.94,0,0,1,17.33,9,17.71,17.71,0,0,1,3.2,8.8c.12,1.59.2,3.19.2,4.78q0,82.44,0,164.88a20.94,20.94,0,0,1-1.86,9.08,20.11,20.11,0,0,1-8.58,9.24,20.8,20.8,0,0,1-10.35,2.56q-42.24,0-84.48,0a22.19,22.19,0,0,1-8.2-1.45,19.83,19.83,0,0,1-11-10.36,21,21,0,0,1-1.85-9.07Zm7.76-.09V189c0,1.24,0,1.24,1.27,1.25H178.55c.28,0,.56,0,.84,0,.66.05,1-.21.91-.9,0-.31,0-.64,0-1V156q0-48.9,0-97.79c0-2,.27-1.84-1.87-1.85H71.28c-2,0-1.75-.13-1.75,1.73Zm55.39-81.84h15.94c.36,0,.72,0,1.08,0a3.63,3.63,0,0,0,3.35-3.06,3.42,3.42,0,0,0-2.65-4.08,6.59,6.59,0,0,0-1.66-.16H108.85c-.32,0-.64,0-1,0a3.58,3.58,0,0,0-3.27,2.56c-.33,1.82-.13,2.92,1.5,4.08a4.06,4.06,0,0,0,2.5.66C114.05,41.37,119.48,41.38,124.92,41.38Zm.42,162.75V204c-1.68,0-3.36,0-5,0a5,5,0,0,0-4.77,2.8,4.78,4.78,0,0,0,4.31,6.83c3.39.14,6.79.13,10.19,0a4.73,4.73,0,0,0,4.66-5c-.09-2.62-2.15-4.45-5-4.47Z"/><path class="cls-2" d="M131.12,124.66c1.28,1.16,2.31,2.1,3.35,3,.55.48.71.45,1.29-.14,1.09-1.11,2.17-2.22,3.29-3.3a3.58,3.58,0,0,1,5.76,4,1.22,1.22,0,0,0,.26,1.64,7.4,7.4,0,0,1,1.94,4.3,1.5,1.5,0,0,0,1.44,1.46,8.74,8.74,0,0,1,5.27,2.84c3.6,3.68,7.28,7.3,10.92,10.95a9.77,9.77,0,0,1,1.41,11.33,9.56,9.56,0,0,1-11.47,4.31,9.38,9.38,0,0,1-3.35-2c-2.76-2.61-5.37-5.37-8-8.06-1.07-1.08-2.15-2.15-3.26-3.18a7.89,7.89,0,0,1-2.57-4.76c-.15-1-.54-1.63-1.7-1.76a7.3,7.3,0,0,1-4.26-2,1,1,0,0,0-1.34-.2,3.57,3.57,0,0,1-5.09-2.56,3.37,3.37,0,0,1,.89-3.1c1.13-1.18,2.32-2.31,3.48-3.46.16-.16.3-.35.45-.53l-3.51-3.72c-1.3,1.29-2.5,2.46-3.68,3.64-3.65,3.65-7.28,7.31-10.94,10.94a2.11,2.11,0,0,0-.7,2,70.19,70.19,0,0,1,.52,7.52,15.83,15.83,0,0,1-1.45,7,11.57,11.57,0,0,1-4.43,4.61A16.33,16.33,0,0,1,95.42,168a5.67,5.67,0,0,1-.71-.06,1.63,1.63,0,0,1-1.44-1.1,1.67,1.67,0,0,1,.5-1.75c1.35-1.37,2.71-2.72,4.06-4.08.9-.9,1.78-1.84,2.71-2.71a1.52,1.52,0,0,0,.53-1.5c-.47-2.55-.95-5.1-1.4-7.65a.65.65,0,0,0-.6-.61c-2.55-.45-5.1-.93-7.65-1.4a1.55,1.55,0,0,0-1.5.51c-1.93,2-3.9,3.91-5.86,5.85-.34.34-.67.68-1,1a1.61,1.61,0,0,1-2.78-1.11,25.9,25.9,0,0,1,0-3.84,16.38,16.38,0,0,1,4.06-9,9.81,9.81,0,0,1,5-3.09,22.42,22.42,0,0,1,8.44-.57c1.54.2,3.09.3,4.64.49.58.07.88-.28,1.21-.62l6.45-6.44c2.55-2.54,5.12-5.06,7.67-7.6a6.44,6.44,0,0,0,.55-.7c-1.38-1.43-2.7-2.81-4-4.16q-8.22-8.24-16.47-16.43a6.06,6.06,0,0,0-1.77-1.17c-1.64-.75-3.34-1.34-5-2.14a12,12,0,0,1-2.74-1.89c-1.51-1.38-2.88-2.89-4.36-4.3a3.82,3.82,0,0,1,.09-6c1.29-1.13,2.44-2.42,3.66-3.64,1.75-1.73,3.72-1.8,5.52-.11s3.28,3.16,4.82,4.85a11.07,11.07,0,0,1,1.73,2.71c.78,1.65,1.41,3.39,2.16,5.07a4.36,4.36,0,0,0,.88,1.25c4.4,4.43,8.81,8.83,13.22,13.25l6.86,6.87c.64.64.75.63,1.35,0L134.43,106c1.32-1.33,2.64-2.67,4-4a1.6,1.6,0,0,0,.49-1.48c-.26-2.46-.51-4.93-.55-7.4a23,23,0,0,1,.55-4.74,10.87,10.87,0,0,1,5.21-7.15,16.9,16.9,0,0,1,10.63-2.63,1.79,1.79,0,0,1,1.75,1,1.77,1.77,0,0,1-.6,2c-2,2-4,4.11-6.13,6.09a2.63,2.63,0,0,0-.87,2.85c.52,2.17.86,4.39,1.22,6.59.09.56.26.81.85.9,2.52.42,5,.89,7.54,1.36a1.43,1.43,0,0,0,1.38-.5c2.2-2.22,4.43-4.39,6.62-6.61a1.77,1.77,0,0,1,2-.66c.87.31,1,1.09,1.08,1.85a17.48,17.48,0,0,1-.56,6.06,15.91,15.91,0,0,1-4.4,7.31,11.64,11.64,0,0,1-6.64,2.77,37.84,37.84,0,0,1-10.14-.34,1.88,1.88,0,0,0-1.79.59q-6.42,6.48-12.89,12.9C132.62,123.36,132,123.87,131.12,124.66Z"/></g></g></svg>