<svg xmlns="http://www.w3.org/2000/svg" viewBox="0 0 1123 1123"><defs><style>.cls-1{fill:none;}.cls-2{fill:#fff;}</style></defs><g id="Layer_2" data-name="Layer 2"><g id="Layer_1-2" data-name="Layer 1"><rect class="cls-1" width="1123" height="1123"/><g id="Layer_2-2" data-name="Layer 2"><g id="Layer_1-2-2" data-name="Layer 1-2"><path class="cls-2" d="M928.2,885.44C937.39,903.08,925.3,920,911,923c-9.25,1.94-17.53-.2-24.42-6.81-4.57-4.38-9-8.89-13.48-13.36L717,746.79c-4.47-4.47-8.91-9-13.41-13.43-4-4-6.26-4.14-10.78-.57a312.33,312.33,0,0,1-50.07,32.65,303.34,303.34,0,0,1-73.85,27.07l-1.63-1.83c-.28.09-.77.12-.83.29-.68,2.06-2.29,2.6-4.22,2.88-8.22,1.18-16.42,2.55-24.66,3.64-25.21,3.32-50.4,2.81-75.6-.39a300.67,300.67,0,0,1-134.38-52.42,306.43,306.43,0,0,1-90-98.2A302.5,302.5,0,0,1,197.73,474a296.51,296.51,0,0,1,27.5-107.58,306,306,0,0,1,60.88-87.09,300.31,300.31,0,0,1,67.31-51.2A306.9,306.9,0,0,1,469.93,191a318.29,318.29,0,0,1,58.81-.46,300.92,300.92,0,0,1,166.56,67.7A307.81,307.81,0,0,1,760.45,332a301.84,301.84,0,0,1,40.46,99.23,245.3,245.3,0,0,1,5.58,41c.44,10.47,1.23,21,.73,31.41-.62,12.92-2.25,25.81-3.74,38.67-2.16,18.59-7.25,36.5-13.5,54.07a306.45,306.45,0,0,1-49,88.16,60.58,60.58,0,0,0-3.8,6.28,70.11,70.11,0,0,0,4.7,5.89q27.48,27.6,55,55.11,62,62,123.89,124c2.87,2.87,5,6.49,7.45,9.77-.24.92-.48,1.84-.73,2.76l.78.08ZM803.63,783.85l.25.19-.33-.11-1-1-.18-.31.27.23Zm-354.76-5.94.2.13-.31-.12v-.17Zm103-30.87.11-.1.08.29Zm159-38.19h-.2l.33.08.51,2.16.2.15-.3-.19Zm-45-14.12v.71l-.14-.6ZM745.69,747l.11-.07.33,2.18.71-.29Zm30.75-193.51v-.63l.09.52,1.25,1.95.8-.9Zm-18.83,21.73V575l.14.05.94,4,1.31-.6c-.83-1-1.61-2.17-2.39-3.29Zm-6.88,80.69.23.6-.34-.5V648.3l-1.39.18ZM502.4,242.17C363,242.44,250.21,354.85,250,494.14c-.25,138.3,111,252.3,251.68,252.74,139,.68,252.28-111.49,253-250.52v-.92C755.14,354.92,641.58,242.44,502.4,242.17Zm248.73,359.9c3.09-5.83-2.82-6.81-5.18-10.85-.24,1.73-.35,2.48-.44,3.12l5.19,3.3c.16,1.66.34,3,.43,4.43ZM483.21,793.59l1-.36c-.37-1.4-.75-2.8-1.14-4.25l-8.35-2c-.1.38-.2.75-.31,1.13l6.8,2.07C482,791.53,482.6,792.56,483.21,793.59Zm5.08-1.21c1.81,3.56,5.07,3.31,8.36,3Zm437.3,117.11-5.44-2.87C921.25,911.06,921.25,911.06,925.59,909.49ZM470.67,786.82c.17-.32.33-.64.49-1a7.89,7.89,0,0,0-7.54-1.43ZM742.67,600l-.21,1.38,2.93.18.09-.95ZM666.46,704.44c.47-2.27-.48-3.14-2.41-3.76C663.52,703,664.45,703.88,666.46,704.44ZM738,595.1h1.09a4.48,4.48,0,0,0,.32-1.74c-.14-.58-.68-1.05-1.66-2.45.13,2.12.19,3.16.25,4.19Zm-27.17,96.58-1,.07c.18,1,.37,1.94.56,2.91l1-.21c-.21-.92-.39-1.84-.56-2.77Zm40.87-71.43-.78.19c.14.67.28,1.35.43,2l.87-.2ZM645.9,752.33l-1.21.17.57,2.61.93-.17Zm143.62,56.59-1.11-.63-.66,1.75.71.38ZM749.91,630.11l.87-.5-1.18-1.52-.56.35Zm-3.14,99.22.87-.06-.16-2.91-.94.06Zm37.17-143.66.43-.19-.52-1.32-.55.24C783.51,584.83,783.73,585.25,783.94,585.67ZM456.86,781.17l.57-.58-1.52-1.49-.59.61Zm291.47-71.73H748v1.62h.37ZM346.87,289.94c-.38-.42-.19-.22,0,0C346.81,289.67,346.75,289.44,346.87,289.94ZM703.26,715.69l-.67.19.48,1.37.56-.18C703.51,716.61,703.39,716.15,703.26,715.69ZM667.51,712l-.62.06.17,1.54h.56C667.59,713,667.55,712.5,667.51,712Zm-22.77,32.9-1,.14c.16.71.32,1.43.47,2.14l.71-.1C644.83,746.33,644.79,745.6,644.74,744.88Zm41.19-63.69.69-.07c-.06-.53-.11-1.06-.17-1.59l-.65.05Zm66.39-20.54-.28-.21v.42ZM435.43,770c-.14,0-.31-.19-.41-.15s-.13.26-.2.39c.14.06.31.19.41.15S435.36,770.15,435.43,770Zm352.94,29.31.42-.23-.52-1-.46.26ZM698.44,659.88h-.29V661h.29Zm-26,53.92h-.34l.14.42ZM311.65,282l-.06.73C311.62,282.51,311.64,282.26,311.65,282Zm2.48,8.86.3.22.08-.31ZM926.88,897.35l.19-.63c-.11,0-.31.06-.31.1A2.4,2.4,0,0,0,926.88,897.35ZM748.37,607.6l-.22-.15v.24ZM417.29,203.05l.29.18v-.31Z"/><path class="cls-2" d="M890.39,926.06c2.21.59,4.41,1.19,6.63,1.76a31.71,31.71,0,0,0,38.75-38.07c-.37-1.61-.91-3.19-1.37-4.78l-.06.11c6.27,6.31,7.66,14.26,6.38,22.47-3.54,22.79-28.3,33.31-47.52,20.44-1-.64-1.87-1.37-2.79-2.06Z"/><path class="cls-2" d="M333.18,755l2.82,2,.1-.1-2.82-2Z"/><path class="cls-2" d="M339.26,758.89l-3.16-2-.1.1,3.16,2Z"/><path class="cls-2" d="M776.5,348.66l1,2,.07-.09-1-2Z"/><path class="cls-2" d="M776.59,348.54l-1-2-.09.1c.32.67.65,1.35,1,2Z"/><path class="cls-2" d="M774.59,344.61l.94,2,.09-.1-.94-2Z"/><path class="cls-2" d="M774.68,344.51l-.81-2.13-.12.09.84,2.14Z"/><path class="cls-2" d="M771.59,339.59c.29.6.59,1.2.88,1.81l.11-.1c-.3-.6-.6-1.21-.89-1.81Z"/><path class="cls-2" d="M934.4,885l-.06.11Z"/><path class="cls-2" d="M771.69,339.49l-.82-2.09-.11.08c.28.71.55,1.41.83,2.11Z"/><path class="cls-2" d="M768.74,334.44l.72,2,.11-.09-.79-1.87Z"/><path class="cls-2" d="M324.12,749.18l1.91.65.1-.1-1.91-.66Z"/><polygon class="cls-2" points="766.58 331.37 766.42 331.17 766.54 331.38 766.58 331.37"/><polygon class="cls-2" points="319.07 744.95 318.98 744.67 318.98 744.92 319.07 744.95"/><path class="cls-2" d="M766.54,331.38l.12.26-.08-.27Z"/><path class="cls-2" d="M319,744.92l.2.21-.11-.17Z"/><path class="cls-2" d="M323,747.82l-.11.1Z"/><path class="cls-2" d="M768.78,334.44v-.29l-.25.15.26.14Z"/><path class="cls-2" d="M770.87,337.44l-1.3-1.12-.11.09,1.3,1.11Z"/><path class="cls-2" d="M323,747.92l1.16,1.26.1-.11L323,747.82Z"/><path class="cls-2" d="M772.47,341.44l1.28,1.07.12-.09-1.29-1.08Z"/><path class="cls-2" d="M327,751l-.86-1.3-.1.1.86,1.14Z"/><path class="cls-2" d="M326.89,751l.16.24L327,751Z"/><path class="cls-2" d="M330,752.87l-.09.07Z"/><polygon class="cls-2" points="329.95 752.94 330.18 753.01 330.05 752.87 329.95 752.94"/><path class="cls-2" d="M333.28,754.92l-.1.1Z"/><polygon class="cls-2" points="890.41 925.93 890.36 925.77 890.39 926.06 890.41 925.93"/><path class="cls-2" d="M568.93,494.14V357.8c0-3.55.08-6.94,2.75-9.78a11.28,11.28,0,0,1,8.88-3.69c9.82.1,19.65,0,29.47,0H638.5c10.5,0,14.12,3.61,14.12,14.05V598.11c0,11.15-.31,22.32.1,33.46.29,7.75-4.82,13.62-13.56,13.45-19.31-.39-38.62-.16-57.94-.1a12.23,12.23,0,0,1-9.09-3.32c-2.58-2.52-3.23-5.64-3.22-9.11.06-16.49,0-33,0-49.45Z"/><path class="cls-2" d="M528.7,540.75V633.6c-.28,6.9-4.46,11.09-11.35,11.28-3.65.1-7.32,0-11,0H457.44c-8.15,0-12.35-4-12.39-12.2-.1-19.46,0-38.93,0-58.39,0-40.6.17-81.2-.14-121.79-.08-10.79,3.77-15.64,15.44-15.35,18,.45,35.93.12,53.9.13,1.5,0,3,0,4.49.11a10.57,10.57,0,0,1,9.91,10c.22,3.48.11,7,.11,10.48Q528.72,499.33,528.7,540.75Z"/><path class="cls-2" d="M321.14,587.44V542c0-3.09.51-5.85,2.78-8.24a11.36,11.36,0,0,1,8.95-3.52c12.48.06,25,0,37.45,0,7.16,0,14.33.27,21.48-.07,9.33-.45,13.5,6.23,13.06,13.28-.29,4.64,0,9.32,0,14v75.92c-.42,7.38-4.74,11.54-12.2,11.56q-27.46.06-54.93,0h-5.5c-6.75-.28-10.87-4.23-10.93-11-.12-15.48,0-31,0-46.45Z"/><path class="cls-2" d="M657.91,350.63a17.81,17.81,0,0,1,4.55,12.66V634.92c0,1.49,0,3,0,4.49-.42,9-6.15,14.92-15.17,15.33-5.15.24-10.32,0-15.47,0H587.37c-4.79,0-9.07-1.19-12.58-4.73,21.65,0,43.06.09,64.47,0,12.4-.07,18.65-6.5,18.67-19q.08-57.91,0-115.84V359.93Z"/><path class="cls-2" d="M410,537.34c2.6,1.16,3.46,3.51,3.83,6a58.15,58.15,0,0,1,.74,8.43q.08,41.41,0,82.82a49.23,49.23,0,0,1-.17,5c-1,10.13-6.49,15.17-16.69,15.21H338.25c-5.14,0-8-1.42-10.88-4.7h63c4.21,0,8.25-.47,12-2.76a14.25,14.25,0,0,0,7-9.85,31.91,31.91,0,0,0,.62-5.93q.08-47.14.07-94.3Z"/><path class="cls-2" d="M538.24,589.77,533.88,596V444.44l-.09.09c2.65,1.09,3.47,3.48,3.92,5.93a42,42,0,0,1,.71,7.42q.08,61,.05,122.09c0,3.31-.18,6.61-.28,9.92Z"/><path class="cls-2" d="M450.16,649a96.38,96.38,0,0,0,9.88,1q26.67.16,53.36,0c3.63,0,7.25-.59,9.87-.82,8.56-4.39,10.93-11.07,10.79-19.14-.09-5.82.12-11.64,0-17.45-.22-8,1.58-15.49,4.22-22.89l0,.07c.1,4.48.28,9,.29,13.45q.06,17.44,0,34.9c0,10.22-5.69,16.3-15.91,16.42-20.11.24-40.22.23-60.32.12-4.69,0-9.27-1.12-12-5.7Z"/><path class="cls-2" d="M639.77,289.37l-5-2.93-.11.11,5.06,2.9Z"/><path class="cls-2" d="M639.67,289.44l3,1.91.1-.11-3-1.91Z"/><path class="cls-2" d="M292.11,624l-.94-1.8-.1.1.94,1.77Z"/><path class="cls-2" d="M287.17,615l.1-.09Z"/><path class="cls-2" d="M533.88,444.44l-.09.09Z"/><path class="cls-2" d="M409.17,535.18l.78,2.16.09-.08-.78-2.08Z"/><path class="cls-2" d="M645.8,293.25l-2-.66-.1.12,2,.64Z"/><path class="cls-2" d="M297.1,632.06l-.77-2h-.06l.79,2Z"/><path class="cls-2" d="M646.77,294.66l1.93.68.1-.11-1.93-.69Z"/><path class="cls-2" d="M291.17,622.2l-.74-2.14h-.11l.75,2.21Z"/><path class="cls-2" d="M642.71,291.44l1,1.32.1-.12-1-1.31Z"/><path class="cls-2" d="M646.87,294.54l-1.07-1.29-.11.1,1.08,1.31Z"/><path class="cls-2" d="M648.7,295.34l.83,1.12h.11l-.84-1.25Z"/><polygon class="cls-2" points="649.53 296.46 649.85 296.61 649.64 296.48 649.53 296.46"/><polygon class="cls-2" points="652.71 298.29 652.49 298.11 652.62 298.37 652.71 298.29"/><path class="cls-2" d="M653.74,299.54l-1-1.25-.09.08,1.09,1.09Z"/><path class="cls-2" d="M653.71,299.44l.09.35-.06-.27Z"/><polygon class="cls-2" points="409.26 535.18 408.99 534.97 409.17 535.18 409.26 535.18"/><polygon class="cls-2" points="290.43 620.06 290.14 619.95 290.32 620.09 290.43 620.06"/><path class="cls-2" d="M292,624.07l.1-.07Z"/><polygon class="cls-2" points="294.12 626.98 293.97 626.85 294.07 627.02 294.12 626.98"/><polygon class="cls-2" points="294.07 627.02 294.32 627.21 294.12 626.98 294.07 627.02"/><path class="cls-2" d="M296.33,630.09l-.1-.28v.27Z"/><path class="cls-2" d="M297,632.06l.07.27v-.27Z"/><path class="cls-2" d="M304.13,642.06l.07.33-.07-.28Z"/><polygon class="cls-2" points="450.28 649.02 449.94 648.88 450.16 649 450.28 649.02"/></g></g></g></g></svg>