<svg xmlns="http://www.w3.org/2000/svg" viewBox="0 0 105.18 104.74"><defs><style>.cls-1{fill:#fff;}</style></defs><g id="Layer_2" data-name="Layer 2"><g id="Layer_1-2" data-name="Layer 1"><path class="cls-1" d="M78.7,58.69h0c.21-.21.41-.44.64-.63,3-2.63,6.09-5.24,9.13-7.86l11.13-9.6,5.22-4.5c.3-.25.6-.46.11-.88-3.92-3.36-7.81-6.73-11.72-10.1L80.55,14.18,65.83,1.5C65.27,1,64.69.55,64,0c0,.29-.08.42-.08.55,0,5.56,0,11.12,0,16.68,0,.62-.23.76-.75.87-1.86.38-3.72.76-5.56,1.23A81.08,81.08,0,0,0,43.4,24.45,78.9,78.9,0,0,0,31,31.7,76.32,76.32,0,0,0,17.12,44.46,72.79,72.79,0,0,0,8,58,71,71,0,0,0,.79,80.6,73.46,73.46,0,0,0,0,93.69a88,88,0,0,0,1,10.5,3.61,3.61,0,0,0,.16.55,1.62,1.62,0,0,0,.15-.28c.1-.47.19-.94.28-1.41a75.74,75.74,0,0,1,5.88-18,61.08,61.08,0,0,1,8.17-12.81A56.18,56.18,0,0,1,26.9,62a53.39,53.39,0,0,1,14.66-7.12,52.34,52.34,0,0,1,10.52-2.05,50,50,0,0,1,11,.24c.87.11.87.14.87,1V70.24c0,.27,0,.54.07,1,.34-.26.58-.42.8-.61l1.67-1.46,9.17-7.9C76.66,60.36,77.69,59.53,78.7,58.69Z"/><path d="M78.7,58.69c-1,.84-2,1.67-3,2.53l-9.17,7.9-1.67,1.46c-.22.19-.46.35-.8.61,0-.41-.07-.68-.07-1V54.05c0-.88,0-.91-.87-1a50,50,0,0,0-11-.24,52.34,52.34,0,0,0-10.52,2.05A53.39,53.39,0,0,0,26.9,62,56.18,56.18,0,0,0,15.67,72.28,61.08,61.08,0,0,0,7.5,85.09a75.74,75.74,0,0,0-5.88,18c-.09.47-.18.94-.28,1.41a1.62,1.62,0,0,1-.15.28,3.61,3.61,0,0,1-.16-.55,88,88,0,0,1-1-10.5A73.46,73.46,0,0,1,.79,80.6,71,71,0,0,1,8,58a72.79,72.79,0,0,1,9.08-13.58A76.32,76.32,0,0,1,31,31.7,78.9,78.9,0,0,1,43.4,24.45a81.08,81.08,0,0,1,14.26-5.12c1.84-.47,3.7-.85,5.56-1.23.52-.11.75-.25.75-.87,0-5.56,0-11.12,0-16.68C64,.42,64,.29,64,0c.65.55,1.23,1,1.79,1.5L80.55,14.18,93.2,25.12c3.91,3.37,7.8,6.74,11.72,10.1.49.42.19.63-.11.88l-5.22,4.5L88.46,50.2c-3,2.62-6.09,5.23-9.13,7.86-.23.19-.43.42-.64.63Z"/><path d="M78.69,58.69h0Z"/></g></g></svg>