<svg xmlns="http://www.w3.org/2000/svg" viewBox="0 0 371.04 84.07"><defs><style>.cls-1{fill:#fff;}</style></defs><g id="Layer_2" data-name="Layer 2"><g id="Layer_1-2" data-name="Layer 1"><path class="cls-1" d="M60.59,11.82c-3,5.48-7.42,10.08-12.1,14-5.25,4.4-11.23,8.43-17.78,10.73C27,42.14,22.57,47.54,16.52,51.43c2.74,1,5.47,2,8.28,2.81a18.23,18.23,0,0,0,9,.57c7.06-1.37,14-6.48,18.44-12.46a.25.25,0,0,1,.36.36A43.89,43.89,0,0,1,41.36,53.08a25.85,25.85,0,0,1-8.42,3.68A17.27,17.27,0,0,1,23.79,56a73.57,73.57,0,0,1-8.28-4,19,19,0,0,1-13,2.24C1.47,54-.47,53.37.1,51.86a4.24,4.24,0,0,1,2.24-1.94,10.61,10.61,0,0,1,4.46-1c2.88,0,5.69,1.08,8.43,2,5-3.16,8.28-8,11.52-13C21,39.4,13.14,39.83,8.39,35.08a10.08,10.08,0,0,1-3-8.14c.43-5.76,4.75-11.08,9.94-13.39a11.58,11.58,0,0,1,8.64-.29,8.8,8.8,0,0,1,5.62,6A8.51,8.51,0,0,1,29,23.92c-.79,1.87-2.38,4.25-4.54,4.32a1.71,1.71,0,0,1-1.8-1.94A2.84,2.84,0,0,1,25,24c-.22.08-.72,1.23-.22,1.52,1.22.64,3.24-.65,4-2.6a6.36,6.36,0,0,0,.15-4.17,8.34,8.34,0,0,0-6.41-5.19,10.3,10.3,0,0,0-7.64,1.66C10,18.38,6.08,25.15,8.1,31c2.66,7.49,12.17,8,19,6.26,5-8.28,8.85-17.35,15.26-25.7C45.76,7.29,50.44,1.67,56.2.23c2.45-.65,5.61,0,6.55,2.81C63.54,5.42,62,9.38,60.59,11.82ZM14.36,51.5a19.49,19.49,0,0,0-8.21-2,9.75,9.75,0,0,0-4,1.16c-4,2.3.29,3.38,3.31,3.38A20.49,20.49,0,0,0,14.36,51.5Zm48-47.24C62.17,1,58.5.52,56,1.6c-2.81,1.22-5.11,3.67-7,6-7,8.56-11.38,18.86-17.79,28.29a50.2,50.2,0,0,0,7.42-3.67A67.33,67.33,0,0,0,53.46,20.39,44.17,44.17,0,0,0,59.22,13C60.66,10.46,62.46,7.43,62.32,4.26Z"/><path class="cls-1" d="M72.75,42.35a.25.25,0,0,1,.36.36C71,45.45,66.78,50.56,63.9,53.52c-1.44,1.36-3.17,2.66-4.76,1.8s-.93-3.39-.21-5.12c-1.44,1.95-3.17,4-5.47,5A3.94,3.94,0,0,1,49.57,55a5.08,5.08,0,0,1-1.44-4.25,14.53,14.53,0,0,1,3.45-8A13.62,13.62,0,0,1,59.14,38c1.37-.21,3,0,3.75,1.3a4.79,4.79,0,0,1,.21,3.17c.65-1.08,1.3-2.09,1.95-3.1a1.52,1.52,0,0,1,2.09-.5,1.69,1.69,0,0,1,.28,2.37c-1.15,1.88-2.37,3.82-3.52,5.69a50.84,50.84,0,0,0-3.1,5.19c-.94,2.16.65,2.59,3,.65A130.73,130.73,0,0,0,72.75,42.35ZM59.5,48.55a33.11,33.11,0,0,0,3.17-5.91c.36-1.51,0-3.74-1.94-3.74a6.17,6.17,0,0,0-3.89,1.94,20.9,20.9,0,0,0-6.48,10.95c-.14,1.08,0,2.37,1.3,2.66a4.37,4.37,0,0,0,2.16-.21C56.26,53.23,58.14,50.71,59.5,48.55Z"/><path class="cls-1" d="M91.33,42.71a85.67,85.67,0,0,1-14.69,15A31.58,31.58,0,0,1,73.4,69.07a50.82,50.82,0,0,1-5,7.85A24.4,24.4,0,0,1,61.52,83c-1.15.65-2.88,1.51-4.11.72s-1.36-2.59-1.22-4a16.4,16.4,0,0,1,3.17-7.35,35.25,35.25,0,0,1,6.12-7c2.66-2.31,5.54-4.25,8.35-6.41A17.84,17.84,0,0,0,74,55a17.54,17.54,0,0,1-2.59.72,3.92,3.92,0,0,1-2-.07c-.51-.22-1.16-.58-1.08-1.16.14-1.22,1.94-2.08,2.95-2.37a4.09,4.09,0,0,1,4,.86,5.14,5.14,0,0,0,.72-.65c1.87-1.65,7.42-8.13,7.27-11.16a2.18,2.18,0,0,0-2.16-1.87c-1.51-.07-2.95.79-4.46,1.22a3,3,0,0,1-2,0c-.72.94-.86,1.3-1.58,2.16-.29.36-.72.15-.36-.36.72-.93,1.08-1.36,1.51-2a1.74,1.74,0,0,1-.57-.65,2.77,2.77,0,0,1,.72-3.46.88.88,0,0,1,1.29.36c.51,1.23-.14,2.45-.72,3.53a3.2,3.2,0,0,0,2-.29c.72-.28,1.44-.64,2.16-.93a5.27,5.27,0,0,1,4.18-.36,3.38,3.38,0,0,1,2,1.94c1.23,2.88-.65,6.05-2.37,8.14A26.56,26.56,0,0,1,76.06,54a6.68,6.68,0,0,1,.58,3A83.84,83.84,0,0,0,91,42.35.25.25,0,0,1,91.33,42.71ZM73.76,59.92a93,93,0,0,0-8.43,6.48,38.79,38.79,0,0,0-6,6.85c-1.51,2.23-2.88,5-2.74,7.7,0,1.37.72,2.81,2.38,2.45,3.38-.87,7.49-7,9.29-9.94A38.21,38.21,0,0,0,73.76,59.92Zm-.07-5.76a1.62,1.62,0,0,0-1.23-1,3.9,3.9,0,0,0-2.23.21c-.36.15-1.58.72-1.44,1.3s.79.57,1.15.65a4.56,4.56,0,0,0,2.38-.44A8.11,8.11,0,0,0,73.69,54.16Zm.79-14.33a4,4,0,0,0,.72-3.09c-.29-.43-.79.36-.94.57A2,2,0,0,0,74.48,39.83Z"/><path class="cls-1" d="M111.49,42.35a.25.25,0,0,1,.36.36c-2.16,2.74-6.34,7.85-9.22,10.81-1.44,1.36-3.17,2.66-4.75,1.8s-.94-3.39-.22-5.12c-1.44,1.95-3.17,4-5.47,5A3.94,3.94,0,0,1,88.3,55a5.11,5.11,0,0,1-1.44-4.25,14.62,14.62,0,0,1,3.46-8A13.59,13.59,0,0,1,97.88,38c1.37-.21,3,0,3.74,1.3a4.79,4.79,0,0,1,.22,3.17c.65-1.08,1.29-2.09,1.94-3.1a1.52,1.52,0,0,1,2.09-.5,1.69,1.69,0,0,1,.29,2.37c-1.15,1.88-2.38,3.82-3.53,5.69a50.84,50.84,0,0,0-3.1,5.19c-.93,2.16.65,2.59,3,.65A132.8,132.8,0,0,0,111.49,42.35Zm-13.25,6.2a34.44,34.44,0,0,0,3.17-5.91c.36-1.51,0-3.74-2-3.74a6.17,6.17,0,0,0-3.89,1.94,21,21,0,0,0-6.48,10.95c-.14,1.08,0,2.37,1.3,2.66a4.37,4.37,0,0,0,2.16-.21C95,53.23,96.87,50.71,98.24,48.55Z"/><path class="cls-1" d="M126.89,42.71c-2.59,3.17-6.84,8.86-10.36,11.67-.94.72-2.24,1.58-3.39,1.15-2.73-.79-.65-6,.15-7.56a35.81,35.81,0,0,1,4-6.34,12.19,12.19,0,0,1-4-1.08,18.54,18.54,0,0,1-1.44,2.16c-.29.36-.72.15-.36-.36s.86-1.22,1.36-2a2.28,2.28,0,0,1-.72-2.31,3.3,3.3,0,0,1,.8-1.58c.43-.43,1.15-.58,1.44.07.43,1.08-.22,2.45-.8,3.53a7.42,7.42,0,0,0,4.68-.22,6.65,6.65,0,0,1,1.66-.57,1.63,1.63,0,0,1,1.3.72,1.42,1.42,0,0,1-.15,1.58c-.5.58-.93,1.23-1.37,1.8a83.25,83.25,0,0,0-5.54,8.43c-.36.57-1.3,2.52-.58,2.88s1.73-.29,2.38-.72c3.67-2.59,8.06-8.36,10.58-11.6A.25.25,0,0,1,126.89,42.71Zm-13-6.12c-.43-.36-1.08.8-1.15,1a1.88,1.88,0,0,0,.43,2.23C113.5,39.26,114.58,37.31,113.86,36.59Z"/><path class="cls-1" d="M144,42.71c-1.44,1.8-3.89,4-6.19,4.47A17.13,17.13,0,0,1,132.08,54c-2,1.37-5.47,2.59-7.49.5s-1.66-6.19-.5-8.71A13.17,13.17,0,0,1,134.38,38a4.61,4.61,0,0,1,3.82,1,3.42,3.42,0,0,1,.65,3.24c-.08.22-.36.07-.36-.14a2.89,2.89,0,0,0-.72-2.67c-2.16-1.87-5.91.94-7.56,2.74A26.26,26.26,0,0,0,125.53,50c-.51,1.29-1,2.95-.22,4.17s2.38,1.16,3.53.65c2.45-1.22,5.18-5.62,6.69-8a2.18,2.18,0,0,1-1.08-1.3,3.15,3.15,0,0,1,1.66-3.31,1.46,1.46,0,0,1,2.23.58,5.31,5.31,0,0,1-.29,3.81,12.49,12.49,0,0,0,5.62-4.25C143.81,42.14,144.32,42.35,144,42.71Zm-8.21,3.75c.15-.22,2.38-4.47.51-3.75A2.35,2.35,0,0,0,135,45.45,2,2,0,0,0,135.82,46.46Z"/><path class="cls-1" d="M158.36,42.64c-2.16,2.59-5.62,7.28-8.43,9.87a11.48,11.48,0,0,1-4.82,2.73c-1.15.29-5.4.94-5.62-1.94a4.25,4.25,0,0,1,3-4.11,1.1,1.1,0,0,1,1.36,1.3,2,2,0,0,1-1.44,1.8c.15-.14.36-.86,0-1.08-.86-.5-2.52.51-2.52,1.95a1.58,1.58,0,0,0,1.44,1.58,4.55,4.55,0,0,0,3.46-1.51c3.39-3.75,1.87-8.93,1.51-13.47-.57.79-1.44,1.87-2.3,3-.36.44-.65,0-.36-.36.65-.79,1.73-2.23,2.59-3.24-.14-1.58-.07-3.38,1.08-4.39.94-.72,2.23-.29,1.87,1a9.61,9.61,0,0,1-1.94,2.88c2.38,4.25,4.9,9.94,1,14a9.67,9.67,0,0,1-2.09,1.59A11.67,11.67,0,0,0,151,50.71c2-2.23,5.33-6.27,7-8.43A.25.25,0,0,1,158.36,42.64Zm-11.31-4.46c.08-.15,2.6-3,1.44-3.31-.65-.15-1.15.72-1.29,1.22A4.14,4.14,0,0,0,147.05,38.18Z"/><path class="cls-1" d="M220.5,26.66c6.48,2.3,7.92,8.57,5.61,15.12-2.59,7.49-13.17,15.84-21.67,13.54a6.35,6.35,0,0,1-4.68-5c-.5-3,.93-6.05,2.88-8.21a12,12,0,0,1,7-4.18c2.09-.29,4,.22,4.9,1.23a1.55,1.55,0,0,1-.58,2.44,2.47,2.47,0,0,1-3.16-.43c.36.15,1-.21,1.15-.36,1.15-1.15-1.15-2.81-3.67-2.09a13.2,13.2,0,0,0-6.2,5c-1.58,2.38-2.52,5.76-.93,8.36,1.51,2.37,4.25,2.88,6.84,2.44a16.86,16.86,0,0,0,7.92-4.39,30.82,30.82,0,0,0,6-7.27c2.24-3.75,4.54-10.23.22-13.83a11.17,11.17,0,0,0-2.81-1.72c-1.8,1.08-8.49,4.17-10.87,2.37-1.22-.93,1.51-2.3,2.23-2.59A14.93,14.93,0,0,1,219,26.3a22.64,22.64,0,0,0,6.05-6,12.63,12.63,0,0,0,2.6-8.57,8.13,8.13,0,0,0-3-5.33A12.36,12.36,0,0,0,221,4.12a29.67,29.67,0,0,0-4.61,5.69c-3.45,5.25-6.62,10.65-9.65,16.27A133.44,133.44,0,0,1,196.37,42.5c-3.6,5-7.7,9.72-13.53,12-2.74,1.08-6.12,1.59-8.93.44a6,6,0,0,1-3.67-7.28c.79-2.73,2.52-5,4.1-5.33a1.57,1.57,0,0,1,1.87,1.88,2.75,2.75,0,0,1-2.16,2.37c.22-.14.65-1,.22-1.44s-2.16-.36-3.24,2a5.06,5.06,0,0,0,1.08,6c2.3,2.08,5.76,1.94,8.5,1,6-2.08,9.79-7.41,13-12.6,3.45-5.54,6.48-11.37,10-16.92,3.38-5.18,6.62-10.51,10.58-15.26a47,47,0,0,1,5.76-5.62c-4-1.3-8.57-1-12.46-.22a35.42,35.42,0,0,0-21.6,15.34c-1.94,3-5.83,11.09-2.45,14.47,2.16,2.24,5.76,2,8.36.94A11.18,11.18,0,0,0,196,31a9.1,9.1,0,0,0,2.31-5,3.2,3.2,0,0,0-2.74-3.46,5.57,5.57,0,0,0-3.38,1.15c-.29.22-.51-.07-.29-.28a6.31,6.31,0,0,1,3.31-1.3,3.28,3.28,0,0,1,3.17,1.95c1.22,2.73-.79,5.76-2.52,7.77a11.54,11.54,0,0,1-7.85,4c-2.88.15-5.9-1.15-7.05-4-2-5,.07-10.51,3.16-14.62,3.68-4.89,9-8.49,14.48-11.08,6.55-3.17,14.61-4.9,22.1-3A11.89,11.89,0,0,1,228.06.45c.5,0,.36.36,0,.36a10.49,10.49,0,0,0-6.27,2.66c5.33,1.73,10.3,7,8.36,13.18C228.63,21.11,224.6,24.28,220.5,26.66Zm-2.38.28a11.51,11.51,0,0,0-7.56.65,5.48,5.48,0,0,0-1.73,1.16c-.57.72.65.93,1.08,1a9.87,9.87,0,0,0,4.54-.93A24.93,24.93,0,0,0,218.12,26.94Z"/><path class="cls-1" d="M247.71,42.71c-1.44,1.8-3.89,4-6.19,4.47A17.21,17.21,0,0,1,235.76,54c-2,1.37-5.48,2.59-7.49.5s-1.66-6.19-.51-8.71A13.19,13.19,0,0,1,238.06,38a4.61,4.61,0,0,1,3.82,1,3.39,3.39,0,0,1,.64,3.24c-.07.22-.36.07-.36-.14a2.84,2.84,0,0,0-.72-2.67c-2.16-1.87-5.9.94-7.56,2.74A26.46,26.46,0,0,0,229.2,50c-.5,1.29-1,2.95-.21,4.17s2.37,1.16,3.53.65c2.44-1.22,5.18-5.62,6.69-8a2.18,2.18,0,0,1-1.08-1.3,3.15,3.15,0,0,1,1.66-3.31,1.46,1.46,0,0,1,2.23.58,5.42,5.42,0,0,1-.29,3.81,12.55,12.55,0,0,0,5.62-4.25C247.49,42.14,248,42.35,247.71,42.71Zm-8.21,3.75c.14-.22,2.38-4.47.5-3.75a2.35,2.35,0,0,0-1.36,2.74A2,2,0,0,0,239.5,46.46Z"/><path class="cls-1" d="M251.52,38a1.45,1.45,0,0,1,1.16,1.87,14.34,14.34,0,0,1-1.3,2.24c-2,3.45-4.75,6.62-5.91,10.51a1.25,1.25,0,0,0,.87,1.73c2.09.36,4.18-1.8,5.47-3.31a47.54,47.54,0,0,0,4.25-5.55c1.08-1.87,2.38-4,3.53-5.83.43-.79,1.08-1.66,1.94-1.66a1.44,1.44,0,0,1,1.23,2.16c-1.8,3.46-4.25,6.63-6.2,10-.36.72-2.66,4.11-.57,4a4.28,4.28,0,0,0,2.45-1.36,132.8,132.8,0,0,0,9-10.45.25.25,0,0,1,.36.36c-2.16,2.74-6.34,7.85-9.22,10.81a6.87,6.87,0,0,1-4,2.08c-3.38-.28-1.22-5.11-.36-6.76a30.27,30.27,0,0,1-2.38,2.88c-1.58,1.8-4,4.1-6.62,3.88-3.24-.21-2.16-4.1-1.44-6a47.75,47.75,0,0,1,3.46-6.7c-.08-.07-.15-.22.07-.51a38.86,38.86,0,0,0,2.3-3.45A1.79,1.79,0,0,1,251.52,38Z"/><path class="cls-1" d="M282.84,42.71c-2.59,3.17-6.84,8.86-10.37,11.67-.93.72-2.23,1.58-3.38,1.15-2.74-.79-.65-6,.14-7.56a36.4,36.4,0,0,1,4-6.34,12.33,12.33,0,0,1-4-1.08,17.34,17.34,0,0,1-1.44,2.16c-.28.36-.72.15-.36-.36s.87-1.22,1.37-2a2.28,2.28,0,0,1-.72-2.31,3.28,3.28,0,0,1,.79-1.58c.44-.43,1.16-.58,1.44.07.44,1.08-.21,2.45-.79,3.53a7.42,7.42,0,0,0,4.68-.22,6.65,6.65,0,0,1,1.66-.57,1.6,1.6,0,0,1,1.29.72,1.41,1.41,0,0,1-.14,1.58c-.5.58-.94,1.23-1.37,1.8a81.58,81.58,0,0,0-5.54,8.43c-.36.57-1.3,2.52-.58,2.88s1.73-.29,2.38-.72c3.67-2.59,8.06-8.36,10.58-11.6A.25.25,0,0,1,282.84,42.71Zm-13-6.12c-.43-.36-1.08.8-1.15,1a1.88,1.88,0,0,0,.43,2.23C269.45,39.26,270.53,37.31,269.81,36.59Z"/><path class="cls-1" d="M303,42.35a.25.25,0,0,1,.36.36c-2.16,2.74-6.33,7.85-9.21,10.81-1.44,1.36-3.17,2.66-4.76,1.8s-.93-3.39-.21-5.12c-1.44,1.95-3.17,4-5.47,5a3.94,3.94,0,0,1-3.89-.21,5.08,5.08,0,0,1-1.44-4.25,14.53,14.53,0,0,1,3.45-8A13.62,13.62,0,0,1,289.39,38c1.37-.21,3,0,3.75,1.3a4.85,4.85,0,0,1,.22,3.17c.64-1.08,1.29-2.09,1.94-3.1a1.52,1.52,0,0,1,2.09-.5,1.7,1.7,0,0,1,.29,2.37c-1.16,1.88-2.38,3.82-3.53,5.69a50.84,50.84,0,0,0-3.1,5.19c-.94,2.16.65,2.59,2.95.65A130.73,130.73,0,0,0,303,42.35Zm-13.25,6.2a33.11,33.11,0,0,0,3.17-5.91c.36-1.51,0-3.74-1.94-3.74a6.17,6.17,0,0,0-3.89,1.94,20.9,20.9,0,0,0-6.48,10.95c-.14,1.08,0,2.37,1.3,2.66a4.37,4.37,0,0,0,2.16-.21C286.51,53.23,288.39,50.71,289.75,48.55Z"/><path class="cls-1" d="M316.54,52.87c3.09-3.17,6.19-7,9-10.52.22-.28.57.15.36.36-1.51,1.95-3.17,4-4.75,5.84-1.88,2.09-4,4.89-6,6.26a3.66,3.66,0,0,1-3.17.65,2.21,2.21,0,0,1-1.29-2c.07-3.81,4.32-9,6.33-13.46.22-.51-.07-.87-.65-1-1.51-.36-3.45,1.44-4.6,2.59a39,39,0,0,0-4.83,6c-1.37,2.45-2.81,4.61-4.32,7-.5.8-1.3,1.37-2.23.87a1.6,1.6,0,0,1-.86-1.37,2.56,2.56,0,0,1,.5-1.22c1.8-2.88,3.6-5.77,5.47-8.65.15-.21,3.24-4.82,1.8-4.82a3.37,3.37,0,0,0-1.94,1.15,23.38,23.38,0,0,0-2,2.23c-.36.44-.86.29-.36-.36.72-.86,1.15-1.44,2.38-2.73s3.31-2.45,4.32-.94c.72,1.15.07,3-1,5.62A38.76,38.76,0,0,1,311.57,41a15.76,15.76,0,0,1,3.24-2.45c2.59-1.44,5.18-.22,4.32,3-1.44,4.18-6.62,11.31-6,12.24S315.75,53.66,316.54,52.87Z"/><path class="cls-1" d="M351.53,24c-4,2.09-9,1.16-13.32,1.23a231.87,231.87,0,0,0-12.53,23c-.22.5-2.95,6.7-.72,5.69a8.89,8.89,0,0,0,2.09-1.59,129.32,129.32,0,0,0,8.71-10c.22-.28.58.15.36.36-2.52,3.1-5.11,6.27-7.78,9.15a25.84,25.84,0,0,1-3.16,3.1,2.87,2.87,0,0,1-2.6.5c-1.15-.58-1.08-2.16-.93-3.24a32.1,32.1,0,0,1,3-8.35,181.16,181.16,0,0,1,10.3-18.72,36.94,36.94,0,0,0-7.49.43.2.2,0,0,1-.15-.36,26.42,26.42,0,0,1,8.21-1.08c3.17-5.26,6.48-10.44,9.8-15.56.72-1,2.59-.21,2.16.94-.15.36-.65,1.22-.94,1.73-2.66,4.25-5.18,8.64-7.7,13,2.08.07,4.1.21,6.12.29a17.22,17.22,0,0,0,6.4-.8C351.89,23.42,352.11,23.63,351.53,24Z"/><path class="cls-1" d="M356.28,42.35a.25.25,0,0,1,.36.36c-2.16,2.74-6.33,7.85-9.22,10.81-1.43,1.36-3.16,2.66-4.75,1.8s-.93-3.39-.21-5.12c-1.44,1.95-3.17,4-5.48,5A3.93,3.93,0,0,1,333.1,55a5.05,5.05,0,0,1-1.44-4.25,14.53,14.53,0,0,1,3.45-8A13.62,13.62,0,0,1,342.67,38c1.37-.21,3,0,3.75,1.3a4.79,4.79,0,0,1,.21,3.17c.65-1.08,1.3-2.09,1.95-3.1a1.52,1.52,0,0,1,2.09-.5,1.69,1.69,0,0,1,.28,2.37c-1.15,1.88-2.37,3.82-3.53,5.69a50.83,50.83,0,0,0-3.09,5.19c-.94,2.16.65,2.59,2.95.65A130.73,130.73,0,0,0,356.28,42.35ZM343,48.55a33.11,33.11,0,0,0,3.17-5.91c.36-1.51,0-3.74-1.94-3.74a6.14,6.14,0,0,0-3.89,1.94,20.9,20.9,0,0,0-6.48,10.95c-.15,1.08,0,2.37,1.29,2.66a4.36,4.36,0,0,0,2.16-.21C339.79,53.23,341.66,50.71,343,48.55Z"/><path class="cls-1" d="M371,42.64c-2.16,2.59-5.62,7.28-8.43,9.87a11.48,11.48,0,0,1-4.82,2.73c-1.15.29-5.4.94-5.62-1.94a4.25,4.25,0,0,1,3-4.11,1.11,1.11,0,0,1,1.37,1.3,2.05,2.05,0,0,1-1.44,1.8c.14-.14.36-.86,0-1.08-.87-.5-2.52.51-2.52,1.95A1.58,1.58,0,0,0,354,54.74a4.55,4.55,0,0,0,3.45-1.51c3.39-3.75,1.87-8.93,1.51-13.47-.57.79-1.44,1.87-2.3,3-.36.44-.65,0-.36-.36.65-.79,1.73-2.23,2.59-3.24-.14-1.58-.07-3.38,1.08-4.39.94-.72,2.23-.29,1.87,1a9.61,9.61,0,0,1-1.94,2.88c2.38,4.25,4.9,9.94,1,14a9.67,9.67,0,0,1-2.09,1.59,11.67,11.67,0,0,0,4.82-3.53c2-2.23,5.33-6.27,7-8.43A.25.25,0,0,1,371,42.64Zm-11.31-4.46c.08-.15,2.6-3,1.44-3.31-.64-.15-1.15.72-1.29,1.22A4.14,4.14,0,0,0,359.66,38.18Z"/></g></g></svg>