<svg xmlns="http://www.w3.org/2000/svg" viewBox="0 0 200 200"><defs><style>.cls-1{fill:#fff;}.cls-2{fill:none;}</style></defs><g id="Layer_2" data-name="Layer 2"><g id="Layer_1-2" data-name="Layer 1"><g id="Layer_2-2" data-name="Layer 2"><g id="Layer_1-2-2" data-name="Layer 1-2"><g id="Layer_2-2-2" data-name="Layer 2-2"><g id="Layer_1-2-2-2" data-name="Layer 1-2-2"><path class="cls-1" d="M99.81,155.82H46.49a5.72,5.72,0,0,1-1.43-.12c-1.6-.36-2.8-2.24-2.75-4.4V78.57c0-10.78.07-21.55,0-32.32-.05-3.91,1.92-5.55,4.13-5.55q27.33.12,54.66,0h53.13c1.84.14,3.27,2.17,3.2,4.59v84.54c0,6.93-.06,13.86,0,20.8.15,2.67-1.38,5-3.41,5.18a2.17,2.17,0,0,1-.51,0H110.1ZM45.51,45.06V151.55h80.08V137.08c0-2,.6-2.78,2.1-2.78h16.22c1.54,0,2.08.75,2.08,2.76v14.4h8.3V45.06Zm97.23,93.6H128.82c0,4.37-.2,8.64,0,12.89h13.94Z"/><path class="cls-1" d="M84.71,109.5H54.31c-2.51,0-2.81-.38-2.81-3.68V52.33c0-1.6.59-2.33,1.77-2.35,2.95,0,5.88-.1,8.8-.1,3.74,0,7.47.08,11.2.09,2.84,0,5.68-.09,8.53-.09,3.64,0,7.29.08,10.93.09,1.53,0,3.06-.09,4.6-.09l15.81.09c.8,0,1.6-.06,2.4-.09,1.88-.07,2.45.62,2.45,3.07s0,5.07,0,7.6c0,3.43.06,6.84.06,10.27,0,6.67-.06,13.34-.06,20,0,4.51,0,9,0,13.55,0,.8,0,1.6,0,2.4,0,2.11-.52,2.65-2.12,2.65h-6.2Zm30.08-4.22v-51h-60v51Z"/><path class="cls-1" d="M84.83,125.08h31.55c.88-.2,1.71.57,1.86,1.72a2.14,2.14,0,0,1-1.3,2.45,1.32,1.32,0,0,1-.56,0H53.23c-.86.25-1.71-.48-1.9-1.6a2.18,2.18,0,0,1,1.23-2.51,1.12,1.12,0,0,1,.63,0h1.35Z"/><path class="cls-1" d="M84.78,119.38H53.51a2.69,2.69,0,0,1-.8-.08,2.31,2.31,0,0,1-1-2.67,1.87,1.87,0,0,1,1.12-1.39,4.22,4.22,0,0,1,.87,0H116.3c.87-.23,1.72.5,1.89,1.65a2.17,2.17,0,0,1-1.25,2.49,1.16,1.16,0,0,1-.64,0Z"/><path class="cls-1" d="M135.79,102h-8c-1.6,0-2.16-.73-2.16-2.8v-16c0-2,.58-2.78,2.08-2.78H144c1.38,0,2,.8,2,2.61V99.43c0,1.83-.61,2.59-2,2.59Zm6.94-17.17h-13.9V97.78h13.9Z"/><path class="cls-1" d="M135.86,54.6H144c1.43,0,2,.73,2,2.6V73.42c0,1.87-.57,2.62-2,2.62h-16.4c-1.41,0-2-.75-2-2.62V57.21c0-1.86.57-2.58,2-2.59h8.22Zm6.92,17.2V58.88H128.84V71.8Z"/><path class="cls-1" d="M135.86,106.58h8c1.51,0,2,.68,2,2.64v16.19c0,1.86-.57,2.6-2,2.6H127.59c-1.41,0-2-.75-2-2.59v-16.2c0-1.93.57-2.64,2.06-2.64Zm6.86,4.28H128.84v12.9h13.89Z"/><path class="cls-1" d="M74.26,138.57H53.37c-.94.09-1.75-.8-1.83-2.06v0a1.92,1.92,0,0,1,1.73-2.12H94a8.5,8.5,0,0,1,1.6.12,2.21,2.21,0,0,1,0,4.1,9.87,9.87,0,0,1-1.72.09Q84.07,138.59,74.26,138.57Z"/></g></g></g></g><rect class="cls-2" width="200" height="200"/></g></g></svg>