<svg xmlns="http://www.w3.org/2000/svg" viewBox="0 0 143.95 143.95"><defs><style>.cls-1{fill:#fff;}</style></defs><g id="Layer_2" data-name="Layer 2"><g id="Layer_1-2" data-name="Layer 1"><g id="Layer_2-2" data-name="Layer 2"><g id="Layer_1-2-2" data-name="Layer 1-2"><path class="cls-1" d="M71.87,143.91H5.22a7.19,7.19,0,0,1-1.79-.16c-2-.44-3.49-2.79-3.43-5.49V47.34C0,33.87.09,20.4,0,6.94-.06,2.06,2.4,0,5.16,0Q39.33.15,73.49.07H139.9c2.3.17,4.08,2.71,4,5.74V111.48c0,8.66-.08,17.33,0,26,.18,3.34-1.73,6.24-4.26,6.48a3.42,3.42,0,0,1-.64,0H84.73ZM4,5.46V138.57H104.1V120.48c0-2.48.75-3.47,2.62-3.47H127c1.92,0,2.6.93,2.6,3.45v18h10.37V5.46Zm121.53,117H108.14c0,5.46-.26,10.79,0,16.11h17.42Z"/><path class="cls-1" d="M53,86H15c-3.14,0-3.52-.47-3.52-4.59V14.54c.06-2,.74-2.91,2.22-2.94,3.68,0,7.35-.12,11-.12,4.67,0,9.34.1,14,.11,3.55,0,7.1-.11,10.66-.11,4.55,0,9.11.1,13.66.11,1.92,0,3.83-.11,5.75-.11l19.77.11c1,0,2-.07,3-.11,2.35-.09,3.06.78,3.06,3.84s-.07,6.34-.07,9.5c0,4.28.08,8.55.08,12.83,0,8.34-.07,16.68-.08,25,0,5.64,0,11.29.07,16.94,0,1,0,2-.07,3,0,2.64-.64,3.32-2.64,3.32H84.14ZM90.6,80.73V17h-75v63.7Z"/><path class="cls-1" d="M53.15,105.48H92.59c1.09-.25,2.13.71,2.32,2.15a2.67,2.67,0,0,1-1.63,3.06,1.61,1.61,0,0,1-.69,0H13.65c-1.08.31-2.14-.6-2.38-2a2.75,2.75,0,0,1,1.54-3.14,1.51,1.51,0,0,1,.79,0h1.68Z"/><path class="cls-1" d="M53.08,98.35H14a3.1,3.1,0,0,1-1-.1,2.88,2.88,0,0,1-1.27-3.33,2.35,2.35,0,0,1,1.41-1.74,4.87,4.87,0,0,1,1.08,0H92.49c1.08-.29,2.14.63,2.36,2.06a2.72,2.72,0,0,1-1.56,3.12,1.55,1.55,0,0,1-.8,0H53.08Z"/><path class="cls-1" d="M116.85,76.65h-10c-2,0-2.7-.91-2.7-3.5V53.22c0-2.5.72-3.48,2.6-3.48h20.36c1.73,0,2.51,1,2.51,3.27V73.42c0,2.28-.76,3.24-2.52,3.24H116.85Zm8.67-21.46H108.15V71.36h17.37Z"/><path class="cls-1" d="M116.94,17.38h10.19c1.79,0,2.48.91,2.48,3.25V40.9c0,2.34-.71,3.28-2.46,3.28h-20.5c-1.76,0-2.48-.94-2.49-3.27V20.64c0-2.32.71-3.22,2.5-3.24h10.28Zm8.64,21.5V22.73H108.16V38.88Z"/><path class="cls-1" d="M116.94,82.36H127c1.88,0,2.55.84,2.55,3.29v20.24c0,2.33-.71,3.25-2.48,3.25H106.6c-1.76,0-2.49-.94-2.5-3.23V85.66c0-2.42.71-3.3,2.57-3.3Zm8.57,5.35H108.16v16.12h17.36Z"/><path class="cls-1" d="M39.94,122.34H13.82c-1.17.12-2.19-1-2.28-2.57v-.07c0-1.52,1-2.7,2.16-2.64H64.64a10.3,10.3,0,0,1,2,.14,2.77,2.77,0,0,1,0,5.13,12.86,12.86,0,0,1-2.15.11Q52.21,122.37,39.94,122.34Z"/></g></g></g></g></svg>