<svg xmlns="http://www.w3.org/2000/svg" viewBox="0 0 449.8 315.59"><defs><style>.cls-1{fill:#fff;}</style></defs><g id="Layer_2" data-name="Layer 2"><g id="Layer_1-2" data-name="Layer 1"><path class="cls-1" d="M208.87,315.59c-35.44-1.69-87-3.85-138.56-6.81-14.06-.81-28.19-3.21-40-12.41-11.06-8.62-18.42-19.44-21.55-33.21-7.06-31.1-8-62.77-8.59-94.41-.67-34,.58-68,5.55-101.69C7.92,52.15,11,37.45,22,25.93,30.4,17.15,40.19,11,52.31,8.76c30.11-5.64,60.61-6.38,91.07-7.34C213.68-.8,284-.69,354.21,3.75a352.28,352.28,0,0,1,42.12,5c23.83,4.41,39.41,19.12,44.18,42.67a462.92,462.92,0,0,1,7.66,61.37c3,45.14,2.06,90.28-4.29,135.15-2.08,14.73-5.24,29.17-16.08,40.67-8.39,8.9-18.08,15.69-30.23,17.16-23,2.76-46,5.54-69.07,6.66C294.06,314.13,259.56,314.36,208.87,315.59Zm-28.71-90.86,116.69-67.35L180.16,90.08Z"/></g></g></svg>