<svg xmlns="http://www.w3.org/2000/svg" viewBox="0 0 425.2 291.45"><defs><style>.cls-1,.cls-2{fill:#fff;}.cls-2{font-size:77.67px;font-family:AGaramondPro-Bold, Adobe Garamond Pro;font-weight:700;letter-spacing:0.1em;}.cls-3{letter-spacing:0.08em;}</style></defs><g id="Layer_2" data-name="Layer 2"><g id="Layer_1-2" data-name="Layer 1"><path class="cls-1" d="M295.88,132.08c-7.34.1-14.68.08-22,.34-16.1.58-32.17,1.63-48.27,1.88-15.75.23-31.53-.18-47.28-.53a400.38,400.38,0,0,1-40.89-2.91c-8.5-1.06-14.22-4.15-17-9.67a3,3,0,0,0-.71-1.06c-3.11-2.69-6.32-5.33-9.38-8a57.69,57.69,0,0,1-6.26-6c-2.24-2.69-.68-5.43,3.17-6.36,2.25,2.46,4.45,3.19,8.22,2.71.76-1-.2-1.32-1.44-1.63q-21.93-5.47-43.82-11c-.71-.18-1.37-.45-2.06-.68l.33-.51,63.11,15.1.36-.44c-3.65-3.4-5.52-7.18-5.37-11.29l-28-1.21,15.68-6.22L114,84H89L121.72,57c.35,8.31-.77,16.21,1.32,24.14l7.73-3,.37,2.2.53.23c3.19-4.63,9.8-5.13,16.51-6.32-.71-.7-1.07-1.48-1.81-1.72-4-1.31-8.17-2.51-12.29-3.72a14.37,14.37,0,0,0-1.84-.26l4.2,5.54-.52.26c-2-1.45-4.21-2.83-6.08-4.38a6.77,6.77,0,0,1-2.3-3c-1.56-5.55-.12-11.1.53-16.63.53-4.5,3-8.43,8.52-11.3.56-.29.84-.83,1.23-1.24-.91-.44-1.88-.67-2.23-1.12-2.11-2.72-4-5.59-2.28-8.68,1.48-2.74,3.57-5.32,5.32-8,.81-1.23,1.62-1,2.63-.14,1.61,1.33,3.26,2.64,5.06,4.09v-7c.65.07,1.1.3,1.11.55,0,.82-.16,1.64-.14,2.47.07,4.44.18,8.89.27,13.34,0,1,0,2,0,3,2.25.13,4.16.12,6,.39.68.09,1.17.8,1.75,1.23a7.12,7.12,0,0,1-2,.75c-1.84.11-3.7,0-5.5,0-.37,2.29.61,4.2.11,6.26-.44,1.8-1.06,3.6-1.39,5.38-.63,3.4-.18,6.89-.18,10.36l4.1.21v8.37l.83-.85h2.46c.84,1.7,3.84,0,5.66,1.31-1,.08-1.69.17-2.35.18-1.38,0-2.76,0-4.14,0-1.6,0-2.34.41-2.32,1.56,0,2.15,0,2.15,1.5,3.19l-2,1.34c1.36.72,3.46-.57,3.67.86l-3.21-.43c-.11,1.08-.26,1.9-.27,2.73q0,7.22,0,14.45a36.13,36.13,0,0,0,.16,4.54c.06.46.74,1,1.37,1.26.39.15,1.22-.23,1.95-.4.77.63,1.7,1.41,3.11.2.89,1.13,2,1.09,3.34.26.48.66.89,1.26,2.21.53.38-.2,1.39.11,2.11.18l2,.22v-.28l2.86,1.86-.35.23-1.64-.9c-.65,1.83.31,2.68,3.68,3l-2.77-1.12c1-.12,1.95-.24,2.89-.3a2.58,2.58,0,0,1,1,.25l3.3,1.25,0-.57,1.94-.62c.53,1.55,2.35,1,3.54,1.11l.86-1.15a5.36,5.36,0,0,0,1.12.69,7,7,0,0,0,2.19.58c6.25.07,12.49.07,18.73.1h4c-1-.65-1.59-1-2.09-1.31-2.22-1.54-5.25-2.84-6.47-4.69-2.81-4.26-3.48-8.8.15-13.12A49,49,0,0,1,211.63,75a24.89,24.89,0,0,1,2.25-1.09,27.76,27.76,0,0,1-3.94-1c-2.93-1.22-5.68-2.64-8.61-3.88-2-.82-3.19-1.85-3.74-3.4-2.47-6.85-1.31-13.4,3.3-19.69,2.66-3.62,5.41-7.22,7.82-10.42a35,35,0,0,1-2-4c-1.32-3.8.81-7.37,2.24-10.89,1.17-2.88,3.62-5.53,5.57-8.26.26-.36.93-.58,1.41-.86l.52.24C215,14.36,216,17.41,212,19.5a2.87,2.87,0,0,0-1.12,4.58c1.14,1.47,2.4,2.9,3.68,4.31a10.4,10.4,0,0,0,1.9,1.19,13.77,13.77,0,0,0,.3-1.74c0-2,.06-3.92.07-5.87,0-3.87,0-7.74.05-11.61,0-.17.08-.48.18-.5,1.7-.2,1.11-1.1,1.13-1.74,0-2.49,0-5,0-7.48a1.69,1.69,0,0,1,.27-.64,91.45,91.45,0,0,1,.36,12.14c-.13,3.36-.63,6.72-.83,10.08-.13,2.28,0,4.57,0,7,2.53,0,4.62-.06,6.7,0,.63,0,1.78.55,1.73.69a2.28,2.28,0,0,1-1.25,1.48,14.77,14.77,0,0,1-3.4.32c-1.12.07-2.25.08-3.36.12,0,2.67,0,5.16,0,7.66,0,.68.2,1.53-.32,2-1.27,1.14-1.21,2.35-1.16,3.62.05,1.06,0,2.12,0,3.18V60.56l3.95.41c0,2.34,0,4.58,0,6.83,0,.43.51.85.79,1.28l.9-1.09c1.12-.08,2.43-.28,2.16,1l5,.16,0,.57c-.59,0-1.19.11-1.78.12-1.53,0-3,0-4.58,0s-2.68.31-2.32,1.67c.3,1.17.76,2.46.31,3.54-.55,1.36-.51,2.34,1.15,3.29l-1.35-.22v26.42L226,103l1.77.9-1.57.69.28.4a7.64,7.64,0,0,0,2.07-.46c2.68-1.77,3.59-4,3.1-6.54h.58l.77,2.17,1.4-2,2.35,2.09.36-2.21c1.53,2.41,1.53,2.41,2.47,2.4a7,7,0,0,1,.43-1.86c.09-.19.86-.33,1.33-.33a18.07,18.07,0,0,1,2.17.26l.18,1.93c3.53.33.92-1.94,2.68-2.47l.4,2.43c3.24.15.91-1.91,2.52-2.53l.43,2.25c1.28,0,1.28,0,2.3-2.3.85.74-.36,2.38,2.22,2.3l.47-2.36.54,0,.25,2.26c3.21.31.82-2.08,2.78-2.4l.24,2.7c.88-.49,1.64-.72,1.84-1.08a4.17,4.17,0,0,0,.21-1.73h.63l.3,2.19h.41V90c-4.41.31-8.9.57-13.36,1s-9,.42-13.32,1.73l26.71-13-12.53-4.93-.36.36,1.42,1.53c-1.8-.9-3.86-1.73-4.9-2.94-2.68-3.12-3.82-6.49-1.26-9.94,2-2.7,4.13-5.36,6.41-8a9.38,9.38,0,0,1,3.39-2.29A49.8,49.8,0,0,1,259.72,52a4.77,4.77,0,0,0,.68-.3l-.84-.44a13.11,13.11,0,0,0,.84-1.86c.13-.47-.07-1,.08-1.46.09-.29.56-.53.86-.79.29.27.76.52.84.82a5.36,5.36,0,0,1,.06,1.6c0,1.21.73,1.83,2.66,1.55a10.8,10.8,0,0,1,1.2-.06c-.09.2-.09.33-.18.37a3,3,0,0,1-.74.29c-2.19.53-3,1.52-2.94,3.11.15,3.33.05,6.66.06,10v4.85l4.21.16,0,.3-1.86.37v4.08l4.67.4-.07.5-4.5.18v2.69l27.78-12.7c-.67,1.16-1.65,2.24-1.89,3.4-.57,2.71-.79,5.45-1.13,8.17-.38,3-.72,6-1.14,9a1.38,1.38,0,0,1-.87,1c-2.67.53-5.35,1.11-8.08,1.38-4.8.48-9.63.75-14.46,1.11v5.74c6.61-.64,23.91-4.16,28.62-5.85a5.85,5.85,0,0,0,1.93-1.34,9,9,0,0,0,1.15-1.57l3.44,2.8c-.12-1.69-1.52-3.05,1.13-4.33l.75,2.47c.78.61,1.94,1.11,1.86,1.52-.3,1.7-.67,3.43-2.64,4.77-1.68,1.15-1.11,3,.59,4.08,1.32.84,2.86,2,3,3.08.25,1.59-.66,3.26-1,4.9-.12.52-.35,1.16,0,1.56.76,1,0,1.23-1.14,1.36-1.77.21-3.55.37-5.62.58-.39,2.93-.91,5.79-1.09,8.65a3.45,3.45,0,0,0,1.11,3.08,3.28,3.28,0,0,1,1.76,2.68c.07,2.64,0,5.27,0,8.16C297.44,132.07,296.66,132.06,295.88,132.08ZM147.79,61.71a1.09,1.09,0,0,0-.7-.23c-.28.07-.67.31-.65.45.15,1.14.38,2.27.59,3.4-1.32,1.26-.55,2.47.33,4.07.36-1.63,1-2.88-.36-4.08C147.75,64.84,148.35,62.26,147.79,61.71Zm66.66-25.46a21.17,21.17,0,0,0-10.51,9.14c-1,1.7-.65,3.86-.5,5.79.42,5.55,3.08,10.67,7.21,16a9.58,9.58,0,0,1,.15-1.76,5.89,5.89,0,0,1,.59-1.14l1.85.57.31-1.81h.36v4.75c1.16-1.53.84-25,0-25.63C215.75,40.22,214.29,38.29,214.45,36.25Zm-5.22,64.16c1.28,1.62,1.68,3.22,3.63,4.09l1.75-1.59.61,1.44h3.27V96.29q0-9.09-.06-18.17a4.25,4.25,0,0,0-.5-1.3,11.27,11.27,0,0,0-1.67.53c-4.42,2.33-7.08,5.38-8.14,9.07a23.66,23.66,0,0,0-.8,3.48c-.54,3.95-.18,7.75,4.53,10.78l-.46.21Zm-64.36-22c.72.77,1.8,1.55-.7,1.46-.37,0-.88.49-1.18.83-3.88,4.4-2.37,8.75.49,13,1.11,1.65,2.54,3.2,3.83,4.8l.52-.17V76.15Zm-2.32-12,.33,0A14.25,14.25,0,0,0,144,62.83c.21-3.91.22-7.83.23-11.75a6,6,0,0,0-.72-1.82l1-1.93-.84-.26c-1.43,1.86-3.23,3.63-4.19,5.6a10.12,10.12,0,0,0,1.26,11.48c.16.2.85.21,1.49.35Zm117.51,8.38V55.06C254.35,58.31,255.23,72.6,260.06,74.81ZM132.22,97.06c-1.38.13-2,.43-1.35,1.42.92,1.43,1.69,2.9,2.68,4.3a2.32,2.32,0,0,0,1.58.69c.48,0,1-.49,1.41-.8,1.4-1,2.75-2.06,4.15-3.07.54-.38,1.16-.7,2-1.23C139.06,97.51,135.82,96.69,132.22,97.06ZM146.1,36.31v-11a22.2,22.2,0,0,0-5.62,11Zm72.15,38.2c.56-3.79-.2-4.37-4.37-3.15C215.37,72.44,215.42,74.29,218.25,74.51ZM185,104.85l1.38,1.9.91-.67,1.5,1.44.48-2.67Zm11.6.19c.15.7.29,1.39.48,2.27l1.81-1L200,107l1-1.95ZM214,31.77l-4.71.2,1.1,2.29Zm-38,73.76,1.35,1.54.31-2.31-3.86-.41.8,1.88Zm-31.46-65,2-1.32-3.72-.59-.34.3Zm73.07,22.34-.3-1H217v2.64c1.76.07,2-.5.83-3Zm-92.34,42.76,0-.53-5.31-.16,0,.69Zm95.54-.84,1.75,2.38.7-.12.24-2.39ZM265,96.15v3.22C267.06,98.16,267,97.34,265,96.15ZM208.53,107l.63.34.82-1.14,1.32.85.43-.35-3.43-1.87-.41.36Zm-83.25-2.83.08-.24-5.08-.35-.11.59Zm5.5,1.5v-.37h-4.53l.06.37ZM262,78c.4-2.12.26-2.27-2.2-2.16ZM195.3,105.41l0-.28h-5.06l-.07.28Zm11.61,0,0-.22h-5l0,.22Z"/><path class="cls-1" d="M217.12,9.23c-2.58-2.81-3.89-5.25.29-7.74L198.08,1c-1.67,2.12-1.27,4.39-.68,6.66.06.23.64.54,1,.57C204.48,8.55,210.54,8.87,217.12,9.23Z"/><path class="cls-1" d="M224.63,64.77l-2.52.12.18,2,.32,0,.52-1.18.54.82Z"/><path class="cls-1" d="M153,67.13l.7-2L151.22,65v1.36l1.32-.66Z"/><text class="cls-2" transform="translate(0 267.99) scale(1.11 1)">DR<tspan class="cls-3" x="128.7" y="0">AQ</tspan><tspan x="250.18" y="0">UO</tspan></text></g></g></svg>